<?xml version="1.0" encoding="UTF-8"?>
<!DOCTYPE svg PUBLIC "-//W3C//DTD SVG 20001102//EN" "http://www.w3.org/TR/2000/CR-SVG-20001102/DTD/svg-20001102.dtd">
<svg width="929.0" height="522.0" xmlns="http://www.w3.org/2000/svg" version="1.1">
  <style type="text/css">
text {
  font-family: 'SansSerif';
  font-size: 12px;
}
.node .shape {
fill: #ffffff;
stroke: #000000;
}
.node text {
fill: #000000;
}
.node_node_style .shape {
fill: #ffffcc;
stroke: #000000;
}
.node_node_style text {
fill: #000000;
}
.node_node_style_2 .shape {
fill: #ffffff;
stroke: #000000;
}
.node_node_style_2 text {
fill: #000000;
}
.node_node_style_4 .shape {
fill: #ffffff;
stroke: #000000;
}
.node_node_style_4 text {
fill: #000000;
}
.node_node_style_3 .shape {
fill: #ff9999;
stroke: #000000;
}
.node_node_style_3 text {
fill: #000000;
}
.node_node_style .shape {
fill: #ffffcc;
stroke: #000000;
}
.node_node_style text {
fill: #000000;
}
.node_glia_node .shape {
fill: #339900;
stroke: #000000;
}
.node_glia_node text {
fill: #000000;
}
.node_node_style_4 .shape {
fill: #ffffff;
stroke: #000000;
}
.node_node_style_4 text {
fill: #000000;
}
.node_node_style_5 .shape {
fill: #9999ff;
stroke: #000000;
}
.node_node_style_5 text {
fill: #000000;
}
.node_node_style .shape {
fill: #ffffcc;
stroke: #000000;
}
.node_node_style text {
fill: #000000;
}
.node_node_style_2 .shape {
fill: #ffffff;
stroke: #000000;
}
.node_node_style_2 text {
fill: #000000;
}
.node_node_style_4 .shape {
fill: #ffffff;
stroke: #000000;
}
.node_node_style_4 text {
fill: #000000;
}
.node_node_style_3 .shape {
fill: #ff9999;
stroke: #000000;
}
.node_node_style_3 text {
fill: #000000;
}
.node_glia_node .shape {
fill: #339900;
stroke: #000000;
}
.node_glia_node text {
fill: #000000;
}
.node_node_style_5 .shape {
fill: #9999ff;
stroke: #000000;
}
.node_node_style_5 text {
fill: #000000;
}
.edge {
stroke: #000000;
fill: none;
stroke-width: 1;
}
.edge_POSITIVE {
stroke: #00c800;
}
.edge_NEGATIVE {
stroke: #c80000;
}
.edge_DUAL {
stroke: #0000c8;
}
.edge_edge_style_2 {
stroke: #c80000;
fill: none;
stroke-width: 1;
}
.edge_edge_style {
stroke: #00c800;
fill: none;
stroke-width: 1;
}
.edge_edge_style_2 {
stroke: #c80000;
fill: none;
stroke-width: 1;
}
.edge_edge_style {
stroke: #00c800;
fill: none;
stroke-width: 1;
}
.edge_circuit_edge_2 {
stroke: #00c800;
fill: none;
stroke-width: 1;
}
.edge_circuit_edge {
stroke: #c80000;
fill: none;
stroke-width: 1;
}
</style>
  <defs>
    <marker id="Marker_NEGATIVE_c80000" viewBox="-7 -7 12 15" orient="auto" markerHeight="9" markerWidth="9">
      <path stroke="#c80000" fill="#c80000" d="M -1 -4 L -1 4 L 1 4 L 1 -4 z"/>
    </marker>
  </defs>
  <path class="edge edge_NEGATIVE edge_circuit_edge" marker-end="url(#Marker_NEGATIVE_c80000)" d="M 299.0 196.0 L 299.0 223.0"/>
  <path class="edge edge_NEGATIVE edge_edge_style_2" marker-end="url(#Marker_NEGATIVE_c80000)" d="M 781.0 176.0 L 781.0 259.0"/>
  <defs>
    <marker id="Marker_POSITIVE_00c800" viewBox="-7 -7 12 15" orient="auto" markerHeight="9" markerWidth="9">
      <path stroke="#00c800" fill="#00c800" d="M -4 -5 L -2 0 L -4 5 L 2 0 z"/>
    </marker>
  </defs>
  <path class="edge edge_POSITIVE edge_edge_style" marker-end="url(#Marker_POSITIVE_00c800)" d="M 781.0 377.0 L 781.0 401.0 L 781.0 406.0"/>
  <path class="edge edge_POSITIVE edge_edge_style" marker-end="url(#Marker_POSITIVE_00c800)" d="M 753.0 362.0 L 715.0 362.0 L 715.0 348.0"/>
  <path class="edge edge_NEGATIVE edge_circuit_edge" marker-end="url(#Marker_NEGATIVE_c80000)" d="M 343.0 381.0 L 311.0 381.0 L 311.0 454.0"/>
  <path class="edge edge_NEGATIVE" marker-end="url(#Marker_NEGATIVE_c80000)" d="M 371.0 397.0 L 371.0 397.0 L 371.0 454.0"/>
  <path class="edge edge_POSITIVE" marker-end="url(#Marker_POSITIVE_00c800)" d="M 457.0 235.0 L 457.0 234.0 L 457.0 248.0"/>
  <path class="edge edge_NEGATIVE edge_circuit_edge" marker-end="url(#Marker_NEGATIVE_c80000)" d="M 671.0 290.0 Q 683.0,316.0 683.0,342.0 Q 683.0,371.0 671.0,401.0"/>
  <path class="edge edge_NEGATIVE" marker-end="url(#Marker_NEGATIVE_c80000)" d="M 641.0 290.0 L 641.0 318.0"/>
  <path class="edge edge_POSITIVE" marker-end="url(#Marker_POSITIVE_00c800)" d="M 612.0 271.0 L 526.0 271.0 L 526.0 315.0"/>
  <path class="edge edge_NEGATIVE edge_circuit_edge" marker-end="url(#Marker_NEGATIVE_c80000)" d="M 612.0 403.0 Q 597.0,374.0 597.0,346.0 Q 596.0,318.0 611.0,291.0"/>
  <path class="edge edge_NEGATIVE" marker-end="url(#Marker_NEGATIVE_c80000)" d="M 641.0 403.0 L 641.0 360.0"/>
  <path class="edge edge_POSITIVE" marker-end="url(#Marker_POSITIVE_00c800)" d="M 612.0 426.0 L 527.0 426.0 L 527.0 362.0"/>
  <path class="edge edge_NEGATIVE edge_circuit_edge" marker-end="url(#Marker_NEGATIVE_c80000)" d="M 306.0 259.0 L 306.0 279.0 L 346.0 279.0"/>
  <path class="edge edge_POSITIVE edge_circuit_edge_2" marker-end="url(#Marker_POSITIVE_00c800)" d="M 300.0 259.0 L 300.0 317.0"/>
  <path class="edge edge_POSITIVE edge_circuit_edge_2" marker-end="url(#Marker_POSITIVE_00c800)" d="M 457.0 80.0 L 457.0 100.0"/>
  <path class="edge edge_POSITIVE edge_circuit_edge_2" marker-end="url(#Marker_POSITIVE_00c800)" d="M 371.0 293.0 Q 371.0,321.0 371.0,350.0 Q 371.0,355.0 371.0,361.0"/>
  <path class="edge edge_POSITIVE" marker-end="url(#Marker_POSITIVE_00c800)" d="M 612.0 348.0 L 588.0 348.0 L 588.0 447.0"/>
  <path class="edge edge_POSITIVE" marker-end="url(#Marker_POSITIVE_00c800)" d="M 612.0 339.0 L 559.0 339.0"/>
  <path class="edge edge_POSITIVE" marker-end="url(#Marker_POSITIVE_00c800)" d="M 456.0 185.0 L 456.0 199.0"/>
  <path class="edge edge_NEGATIVE" marker-end="url(#Marker_NEGATIVE_c80000)" d="M 299.0 118.0 L 299.0 160.0"/>
  <path class="edge edge_POSITIVE" marker-end="url(#Marker_POSITIVE_00c800)" d="M 457.0 136.0 L 457.0 149.0"/>
  <path class="edge edge_NEGATIVE edge_edge_style_2" marker-end="url(#Marker_NEGATIVE_c80000)" d="M 713.0 318.0 L 713.0 314.0 L 713.0 285.0"/>
  <path class="edge edge_POSITIVE edge_circuit_edge_2" marker-end="url(#Marker_POSITIVE_00c800)" d="M 729.0 320.0 L 729.0 305.0 L 756.0 305.0 L 756.0 332.0 L 744.0 332.0"/>
  <path class="edge edge_POSITIVE edge_edge_style" marker-end="url(#Marker_POSITIVE_00c800)" d="M 862.0 277.0 L 809.0 277.0"/>
  <path class="edge edge_POSITIVE edge_edge_style" marker-end="url(#Marker_POSITIVE_00c800)" d="M 780.0 295.0 L 780.0 341.0"/>
  <path class="edge edge_NEGATIVE" marker-end="url(#Marker_NEGATIVE_c80000)" d="M 691.0 269.0 L 672.0 269.0"/>
  <path class="edge edge_POSITIVE" marker-end="url(#Marker_POSITIVE_00c800)" d="M 300.0 495.0 L 300.0 517.0 L 589.0 517.0 L 589.0 494.0"/>
  <path class="edge edge_POSITIVE" marker-end="url(#Marker_POSITIVE_00c800)" d="M 314.0 495.0 L 314.0 508.0 L 520.0 508.0 L 520.0 362.0"/>
  <path class="edge edge_POSITIVE" marker-end="url(#Marker_POSITIVE_00c800)" d="M 454.0 289.0 L 454.0 356.0 L 455.0 475.0 L 400.0 475.0"/>
  <path class="edge edge_POSITIVE" marker-end="url(#Marker_POSITIVE_00c800)" d="M 459.0 289.0 L 459.0 345.0 L 459.0 475.0 L 552.0 475.0"/>
  <path class="edge edge_POSITIVE" marker-end="url(#Marker_POSITIVE_00c800)" d="M 464.0 289.0 L 464.0 339.0 L 487.0 339.0"/>
  <path class="edge edge_NEGATIVE" marker-end="url(#Marker_NEGATIVE_c80000)" d="M 449.0 289.0 L 449.0 381.0 L 398.0 381.0"/>
  <path class="edge edge_NEGATIVE" marker-end="url(#Marker_NEGATIVE_c80000)" d="M 445.0 289.0 L 445.0 338.0 L 328.0 338.0"/>
  <path class="edge edge_POSITIVE edge_circuit_edge_2" marker-end="url(#Marker_POSITIVE_00c800)" d="M 300.0 353.0 L 300.0 406.0 L 300.0 421.0 L 300.0 454.0"/>
  <path class="edge edge_POSITIVE edge_edge_style" marker-end="url(#Marker_POSITIVE_00c800)" d="M 752.0 426.0 L 717.0 426.0 L 672.0 426.0"/>
  <g id="Hh" class="node node_node_style">
    <rect id="Hh_shape" class="shape" width="60" height="40" x="269" y="76"/>
    <text  id="Hh_text" x="299" y="99" text-anchor="middle">Hh</text>
  </g>
  <g id="Ptc" class="node node_node_style_2">
    <rect id="Ptc_shape" class="shape" width="50" height="30" x="274" y="164"/>
    <text  id="Ptc_text" x="299" y="182" text-anchor="middle">Ptc</text>
  </g>
  <g id="Smo" class="node node_node_style_2">
    <rect id="Smo_shape" class="shape" width="50" height="30" x="275" y="227"/>
    <text  id="Smo_text" x="300" y="245" text-anchor="middle">Smo</text>
  </g>
  <g id="Pka" class="node node_node_style_4">
    <ellipse id="Pka_shape" class="shape" cx="372.5" cy="278.5" rx="22.5" ry="12.5"/>
    <text  id="Pka_text" x="372" y="281" text-anchor="middle">Pka</text>
  </g>
  <g id="Ci_act" class="node node_node_style_2">
    <rect id="Ci_act_shape" class="shape" width="50" height="30" x="275" y="321"/>
    <text  id="Ci_act_text" x="300" y="339" text-anchor="middle">Ci_act</text>
  </g>
  <g id="Ci_rep" class="node node_node_style_2">
    <rect id="Ci_rep_shape" class="shape" width="50" height="30" x="345" y="365"/>
    <text  id="Ci_rep_text" x="370" y="383" text-anchor="middle">Ci_rep</text>
  </g>
  <g id="Wg" class="node node_node_style">
    <rect id="Wg_shape" class="shape" width="60" height="40" x="427" y="38"/>
    <text  id="Wg_text" x="457" y="61" text-anchor="middle">Wg</text>
  </g>
  <g id="Fz" class="node node_node_style_2">
    <rect id="Fz_shape" class="shape" width="50" height="30" x="432" y="104"/>
    <text  id="Fz_text" x="457" y="122" text-anchor="middle">Fz</text>
  </g>
  <g id="Arm" class="node node_node_style_2">
    <rect id="Arm_shape" class="shape" width="50" height="30" x="432" y="153"/>
    <text  id="Arm_text" x="457" y="171" text-anchor="middle">Arm</text>
  </g>
  <g id="Pan" class="node node_node_style_2">
    <rect id="Pan_shape" class="shape" width="50" height="30" x="431" y="203"/>
    <text  id="Pan_text" x="456" y="221" text-anchor="middle">Pan</text>
  </g>
  <g id="Spi" class="node node_node_style">
    <rect id="Spi_shape" class="shape" width="60" height="40" x="864" y="257"/>
    <text  id="Spi_text" x="894" y="280" text-anchor="middle">Spi</text>
  </g>
  <g id="Aos" class="node node_node_style">
    <rect id="Aos_shape" class="shape" width="60" height="40" x="752" y="134"/>
    <text  id="Aos_text" x="782" y="157" text-anchor="middle">Aos</text>
  </g>
  <g id="Egfr" class="node node_node_style_2">
    <rect id="Egfr_shape" class="shape" width="50" height="30" x="756" y="263"/>
    <text  id="Egfr_text" x="781" y="281" text-anchor="middle">Egfr</text>
  </g>
  <g id="Rl" class="node node_node_style_2">
    <rect id="Rl_shape" class="shape" width="50" height="30" x="755" y="345"/>
    <text  id="Rl_text" x="780" y="363" text-anchor="middle">Rl</text>
  </g>
  <g id="Pnt" class="node node_node_style_2">
    <rect id="Pnt_shape" class="shape" width="50" height="30" x="754" y="410"/>
    <text  id="Pnt_text" x="779" y="428" text-anchor="middle">Pnt</text>
  </g>
  <g id="pGro" class="node node_node_style_4">
    <ellipse id="pGro_shape" class="shape" cx="718.5" cy="332.5" rx="22.5" ry="12.5"/>
    <text  id="pGro_text" x="718" y="335" text-anchor="middle">pGro</text>
  </g>
  <g id="Gro" class="node node_node_style_4">
    <ellipse id="Gro_shape" class="shape" cx="715.5" cy="269.5" rx="22.5" ry="12.5"/>
    <text  id="Gro_text" x="715" y="272" text-anchor="middle">Gro</text>
  </g>
  <g id="wg" class="node node_node_style_3">
    <rect id="wg_shape" class="shape" width="55" height="35" x="277" y="458"/>
    <text  id="wg_text" x="304" y="478" text-anchor="middle">wg</text>
  </g>
  <g id="en" class="node node_node_style_3">
    <rect id="en_shape" class="shape" width="55" height="35" x="431" y="252"/>
    <text  id="en_text" x="458" y="272" text-anchor="middle">en</text>
  </g>
  <g id="hh" class="node node_node_style_3">
    <rect id="hh_shape" class="shape" width="55" height="35" x="342" y="458"/>
    <text  id="hh_text" x="369" y="478" text-anchor="middle">hh</text>
  </g>
  <g id="vnd" class="node node_node_style_3">
    <rect id="vnd_shape" class="shape" width="55" height="35" x="614" y="405"/>
    <text  id="vnd_text" x="641" y="425" text-anchor="middle">vnd</text>
  </g>
  <g id="ind" class="node node_node_style_3">
    <rect id="ind_shape" class="shape" width="55" height="35" x="614" y="253"/>
    <text  id="ind_text" x="641" y="273" text-anchor="middle">ind</text>
  </g>
  <g id="msh" class="node node_node_style_3">
    <rect id="msh_shape" class="shape" width="55" height="35" x="614" y="322"/>
    <text  id="msh_text" x="641" y="342" text-anchor="middle">msh</text>
  </g>
  <g id="Glial" class="node node_glia_node">
    <rect id="Glial_shape" class="shape" width="65" height="40" x="556" y="451"/>
    <text  id="Glial_text" x="588" y="474" text-anchor="middle">Glial</text>
  </g>
  <g id="Neural" class="node node_node_style_5">
    <rect id="Neural_shape" class="shape" width="65" height="40" x="491" y="319"/>
    <text  id="Neural_text" x="523" y="342" text-anchor="middle">Neural</text>
  </g>
</svg>
