<?xml version="1.0" encoding="UTF-8"?>
<!DOCTYPE svg PUBLIC "-//W3C//DTD SVG 20001102//EN" "http://www.w3.org/TR/2000/CR-SVG-20001102/DTD/svg-20001102.dtd">
<svg width="956.0" height="504.0" xmlns="http://www.w3.org/2000/svg" version="1.1">
  <style type="text/css">
text {
  font-family: 'SansSerif';
  font-size: 12px;
}
.node .shape {
fill: #ffffff;
stroke: #000000;
}
.node text {
fill: #000000;
}
.node_node_style .shape {
fill: #ffffcc;
stroke: #000000;
}
.node_node_style text {
fill: #000000;
}
.node_node_style_2 .shape {
fill: #ffffff;
stroke: #000000;
}
.node_node_style_2 text {
fill: #000000;
}
.node_node_style_4 .shape {
fill: #ffffff;
stroke: #000000;
}
.node_node_style_4 text {
fill: #000000;
}
.node_node_style_3 .shape {
fill: #ff9999;
stroke: #000000;
}
.node_node_style_3 text {
fill: #000000;
}
.node_node_style .shape {
fill: #ffffcc;
stroke: #000000;
}
.node_node_style text {
fill: #000000;
}
.node_glia_node .shape {
fill: #339900;
stroke: #000000;
}
.node_glia_node text {
fill: #000000;
}
.node_node_style_4 .shape {
fill: #ffffff;
stroke: #000000;
}
.node_node_style_4 text {
fill: #000000;
}
.node_node_style_5 .shape {
fill: #9999ff;
stroke: #000000;
}
.node_node_style_5 text {
fill: #000000;
}
.node_node_style .shape {
fill: #ffffcc;
stroke: #000000;
}
.node_node_style text {
fill: #000000;
}
.node_node_style_2 .shape {
fill: #ffffff;
stroke: #000000;
}
.node_node_style_2 text {
fill: #000000;
}
.node_node_style_4 .shape {
fill: #ffffff;
stroke: #000000;
}
.node_node_style_4 text {
fill: #000000;
}
.node_node_style_3 .shape {
fill: #ff9999;
stroke: #000000;
}
.node_node_style_3 text {
fill: #000000;
}
.node_glia_node .shape {
fill: #339900;
stroke: #000000;
}
.node_glia_node text {
fill: #000000;
}
.node_node_style_5 .shape {
fill: #9999ff;
stroke: #000000;
}
.node_node_style_5 text {
fill: #000000;
}
.edge {
stroke: #000000;
fill: none;
stroke-width: 1;
}
.edge_POSITIVE {
stroke: #00c800;
}
.edge_NEGATIVE {
stroke: #c80000;
}
.edge_DUAL {
stroke: #0000c8;
}
.edge_edge_style_2 {
stroke: #c80000;
fill: none;
stroke-width: 1;
}
.edge_edge_style {
stroke: #00c800;
fill: none;
stroke-width: 1;
}
.edge_edge_style_2 {
stroke: #c80000;
fill: none;
stroke-width: 1;
}
.edge_edge_style {
stroke: #00c800;
fill: none;
stroke-width: 1;
}
.edge_circuit_edge_2 {
stroke: #00c800;
fill: none;
stroke-width: 3;
}
.edge_circuit_edge {
stroke: #c80000;
fill: none;
stroke-width: 3;
}
</style>
  <defs>
    <marker id="Marker_POSITIVE_00c800" viewBox="-7 -7 12 15" orient="auto" markerHeight="9" markerWidth="9">
      <path stroke="#00c800" fill="#00c800" d="M -4 -5 L -2 0 L -4 5 L 2 0 z"/>
    </marker>
  </defs>
  <path class="edge edge_POSITIVE edge_edge_style" marker-end="url(#Marker_POSITIVE_00c800)" d="M 807.0 258.0 L 807.0 304.0"/>
  <defs>
    <marker id="Marker_NEGATIVE_c80000" viewBox="-7 -7 12 15" orient="auto" markerHeight="9" markerWidth="9">
      <path stroke="#c80000" fill="#c80000" d="M -1 -4 L -1 4 L 1 4 L 1 -4 z"/>
    </marker>
  </defs>
  <path class="edge edge_NEGATIVE edge_edge_style_2" marker-end="url(#Marker_NEGATIVE_c80000)" d="M 808.0 175.0 L 808.0 222.0"/>
  <path class="edge edge_POSITIVE edge_circuit_edge_2" marker-end="url(#Marker_POSITIVE_00c800)" d="M 308.0 407.0 L 308.0 445.0 L 335.0 459.0"/>
  <path class="edge edge_POSITIVE edge_circuit_edge_2" marker-end="url(#Marker_POSITIVE_00c800)" d="M 457.0 198.0 L 457.0 209.0"/>
  <path class="edge edge_POSITIVE edge_edge_style" marker-end="url(#Marker_POSITIVE_00c800)" d="M 779.0 387.0 L 743.0 387.0 L 699.0 387.0"/>
  <path class="edge edge_POSITIVE" marker-end="url(#Marker_POSITIVE_00c800)" d="M 639.0 308.0 L 602.0 308.0 L 602.0 408.0"/>
  <path class="edge edge_POSITIVE" marker-end="url(#Marker_POSITIVE_00c800)" d="M 639.0 304.0 L 590.0 304.0"/>
  <path class="edge edge_NEGATIVE" marker-end="url(#Marker_NEGATIVE_c80000)" d="M 718.0 232.0 L 699.0 232.0"/>
  <path class="edge edge_NEGATIVE" marker-end="url(#Marker_NEGATIVE_c80000)" d="M 309.0 178.0 L 309.0 214.0"/>
  <path class="edge edge_POSITIVE edge_circuit_edge_2" marker-end="url(#Marker_POSITIVE_00c800)" d="M 458.0 136.0 L 458.0 159.0"/>
  <path class="edge edge_POSITIVE edge_edge_style" marker-end="url(#Marker_POSITIVE_00c800)" d="M 889.0 240.0 L 836.0 240.0"/>
  <path class="edge edge_NEGATIVE edge_circuit_edge" marker-end="url(#Marker_NEGATIVE_c80000)" d="M 309.0 250.0 L 309.0 264.0 L 309.0 265.0"/>
  <path class="edge edge_POSITIVE" marker-end="url(#Marker_POSITIVE_00c800)" d="M 399.0 487.0 L 608.0 487.0 L 608.0 455.0"/>
  <path class="edge edge_POSITIVE" marker-end="url(#Marker_POSITIVE_00c800)" d="M 399.0 480.0 L 432.0 480.0 L 518.0 480.0 L 552.0 480.0 L 553.0 446.0 L 553.0 327.0"/>
  <path class="edge edge_POSITIVE edge_circuit_edge_2" marker-end="url(#Marker_POSITIVE_00c800)" d="M 340.0 484.0 L 263.0 484.0 L 263.0 114.0 L 421.0 114.0"/>
  <path class="edge edge_NEGATIVE edge_circuit_edge" marker-end="url(#Marker_NEGATIVE_c80000)" d="M 428.0 233.0 L 340.0 233.0"/>
  <path class="edge edge_POSITIVE" marker-end="url(#Marker_POSITIVE_00c800)" d="M 454.0 253.0 L 454.0 320.0 L 454.0 369.0"/>
  <path class="edge edge_POSITIVE" marker-end="url(#Marker_POSITIVE_00c800)" d="M 459.0 253.0 L 459.0 309.0 L 563.0 408.0"/>
  <path class="edge edge_POSITIVE" marker-end="url(#Marker_POSITIVE_00c800)" d="M 464.0 253.0 L 464.0 303.0 L 518.0 303.0 L 518.0 303.0"/>
  <path class="edge edge_POSITIVE" marker-end="url(#Marker_POSITIVE_00c800)" d="M 487.0 233.0 L 637.0 233.0"/>
  <path class="edge edge_NEGATIVE edge_circuit_edge" marker-end="url(#Marker_NEGATIVE_c80000)" d="M 639.0 366.0 Q 624.0,337.0 624.0,309.0 Q 623.0,283.0 636.0,257.0"/>
  <path class="edge edge_NEGATIVE" marker-end="url(#Marker_NEGATIVE_c80000)" d="M 668.0 366.0 L 668.0 325.0"/>
  <path class="edge edge_POSITIVE" marker-end="url(#Marker_POSITIVE_00c800)" d="M 639.0 389.0 L 562.0 389.0 L 562.0 327.0"/>
  <path class="edge edge_NEGATIVE" marker-end="url(#Marker_NEGATIVE_c80000)" d="M 396.0 390.0 L 426.0 390.0"/>
  <path class="edge edge_NEGATIVE edge_circuit_edge" marker-end="url(#Marker_NEGATIVE_c80000)" d="M 369.0 407.0 L 369.0 457.0"/>
  <path class="edge edge_POSITIVE edge_circuit_edge_2" marker-end="url(#Marker_POSITIVE_00c800)" d="M 366.0 353.0 Q 366.0,356.0 366.0,360.0 Q 366.0,364.0 366.0,368.0"/>
  <path class="edge edge_POSITIVE" marker-end="url(#Marker_POSITIVE_00c800)" d="M 487.0 392.0 L 504.0 392.0 L 504.0 151.0 L 342.0 151.0"/>
  <path class="edge edge_POSITIVE edge_edge_style" marker-end="url(#Marker_POSITIVE_00c800)" d="M 808.0 340.0 L 808.0 364.0 L 808.0 369.0"/>
  <path class="edge edge_POSITIVE edge_edge_style" marker-end="url(#Marker_POSITIVE_00c800)" d="M 780.0 325.0 L 742.0 325.0 L 742.0 311.0"/>
  <path class="edge edge_NEGATIVE edge_edge_style_2" marker-end="url(#Marker_NEGATIVE_c80000)" d="M 740.0 281.0 L 740.0 277.0 L 740.0 248.0"/>
  <path class="edge edge_POSITIVE edge_circuit_edge_2" marker-end="url(#Marker_POSITIVE_00c800)" d="M 756.0 283.0 L 756.0 268.0 L 783.0 268.0 L 783.0 295.0 L 773.0 295.0"/>
  <path class="edge edge_NEGATIVE edge_circuit_edge" marker-end="url(#Marker_NEGATIVE_c80000)" d="M 698.0 253.0 Q 709.0,278.0 710.0,305.0 Q 710.0,332.0 700.0,361.0"/>
  <path class="edge edge_NEGATIVE" marker-end="url(#Marker_NEGATIVE_c80000)" d="M 668.0 253.0 L 668.0 283.0"/>
  <path class="edge edge_POSITIVE" marker-end="url(#Marker_POSITIVE_00c800)" d="M 639.0 242.0 L 607.0 242.0 L 550.0 242.0 L 550.0 280.0"/>
  <path class="edge edge_NEGATIVE edge_circuit_edge" marker-end="url(#Marker_NEGATIVE_c80000)" d="M 314.0 298.0 L 314.0 316.0 L 341.0 337.0 L 339.0 337.0"/>
  <path class="edge edge_POSITIVE edge_circuit_edge_2" marker-end="url(#Marker_POSITIVE_00c800)" d="M 308.0 298.0 L 308.0 323.0 L 308.0 368.0"/>
  <g id="Wg" class="node node_node_style">
    <rect id="Wg_shape" class="shape" width="60" height="40" x="428" y="94"/>
    <text  id="Wg_text" x="458" y="117" text-anchor="middle">Wg</text>
  </g>
  <g id="Hh" class="node node_node_style">
    <rect id="Hh_shape" class="shape" width="60" height="40" x="279" y="136"/>
    <text  id="Hh_text" x="309" y="159" text-anchor="middle">Hh</text>
  </g>
  <g id="Ptc" class="node node_node_style_2">
    <rect id="Ptc_shape" class="shape" width="50" height="30" x="284" y="218"/>
    <text  id="Ptc_text" x="309" y="236" text-anchor="middle">Ptc</text>
  </g>
  <g id="Smo" class="node node_node_style_2">
    <rect id="Smo_shape" class="shape" width="50" height="30" x="285" y="266"/>
    <text  id="Smo_text" x="310" y="284" text-anchor="middle">Smo</text>
  </g>
  <g id="Pka" class="node node_node_style_4">
    <ellipse id="Pka_shape" class="shape" cx="368.5" cy="338.5" rx="22.5" ry="12.5"/>
    <text  id="Pka_text" x="368" y="341" text-anchor="middle">Pka</text>
  </g>
  <g id="Ci_act" class="node node_node_style_2">
    <rect id="Ci_act_shape" class="shape" width="50" height="30" x="286" y="375"/>
    <text  id="Ci_act_text" x="311" y="393" text-anchor="middle">Ci_act</text>
  </g>
  <g id="wg" class="node node_node_style_3">
    <rect id="wg_shape" class="shape" width="55" height="35" x="342" y="464"/>
    <text  id="wg_text" x="369" y="484" text-anchor="middle">wg</text>
  </g>
  <g id="Ci_rep" class="node node_node_style_2">
    <rect id="Ci_rep_shape" class="shape" width="50" height="30" x="344" y="375"/>
    <text  id="Ci_rep_text" x="369" y="393" text-anchor="middle">Ci_rep</text>
  </g>
  <g id="Fz" class="node node_node_style_2">
    <rect id="Fz_shape" class="shape" width="50" height="30" x="433" y="166"/>
    <text  id="Fz_text" x="458" y="184" text-anchor="middle">Fz</text>
  </g>
  <g id="en" class="node node_node_style_3">
    <rect id="en_shape" class="shape" width="55" height="35" x="430" y="216"/>
    <text  id="en_text" x="457" y="236" text-anchor="middle">en</text>
  </g>
  <g id="hh" class="node node_node_style_3">
    <rect id="hh_shape" class="shape" width="55" height="35" x="430" y="373"/>
    <text  id="hh_text" x="457" y="393" text-anchor="middle">hh</text>
  </g>
  <g id="Spi" class="node node_node_style">
    <rect id="Spi_shape" class="shape" width="60" height="40" x="891" y="220"/>
    <text  id="Spi_text" x="921" y="243" text-anchor="middle">Spi</text>
  </g>
  <g id="Aos" class="node node_node_style">
    <rect id="Aos_shape" class="shape" width="60" height="40" x="779" y="133"/>
    <text  id="Aos_text" x="809" y="156" text-anchor="middle">Aos</text>
  </g>
  <g id="Egfr" class="node node_node_style_2">
    <rect id="Egfr_shape" class="shape" width="50" height="30" x="783" y="226"/>
    <text  id="Egfr_text" x="808" y="244" text-anchor="middle">Egfr</text>
  </g>
  <g id="Rl" class="node node_node_style_2">
    <rect id="Rl_shape" class="shape" width="50" height="30" x="782" y="308"/>
    <text  id="Rl_text" x="807" y="326" text-anchor="middle">Rl</text>
  </g>
  <g id="Pnt" class="node node_node_style_2">
    <rect id="Pnt_shape" class="shape" width="50" height="30" x="781" y="373"/>
    <text  id="Pnt_text" x="806" y="391" text-anchor="middle">Pnt</text>
  </g>
  <g id="pGro" class="node node_node_style_4">
    <ellipse id="pGro_shape" class="shape" cx="745.5" cy="295.5" rx="22.5" ry="12.5"/>
    <text  id="pGro_text" x="745" y="298" text-anchor="middle">pGro</text>
  </g>
  <g id="Gro" class="node node_node_style_4">
    <ellipse id="Gro_shape" class="shape" cx="742.5" cy="232.5" rx="22.5" ry="12.5"/>
    <text  id="Gro_text" x="742" y="235" text-anchor="middle">Gro</text>
  </g>
  <g id="vnd" class="node node_node_style_3">
    <rect id="vnd_shape" class="shape" width="55" height="35" x="641" y="368"/>
    <text  id="vnd_text" x="668" y="388" text-anchor="middle">vnd</text>
  </g>
  <g id="ind" class="node node_node_style_3">
    <rect id="ind_shape" class="shape" width="55" height="35" x="641" y="216"/>
    <text  id="ind_text" x="668" y="236" text-anchor="middle">ind</text>
  </g>
  <g id="msh" class="node node_node_style_3">
    <rect id="msh_shape" class="shape" width="55" height="35" x="641" y="287"/>
    <text  id="msh_text" x="668" y="307" text-anchor="middle">msh</text>
  </g>
  <g id="Glial_cells" class="node node_glia_node">
    <rect id="Glial_cells_shape" class="shape" width="65" height="40" x="567" y="412"/>
    <text  id="Glial_cells_text" x="599" y="435" text-anchor="middle">Glial_cells</text>
  </g>
  <g id="Proneural" class="node node_node_style_5">
    <rect id="Proneural_shape" class="shape" width="65" height="40" x="522" y="284"/>
    <text  id="Proneural_text" x="554" y="307" text-anchor="middle">Proneural</text>
  </g>
</svg>
