<?xml version="1.0" encoding="UTF-8"?>
<!DOCTYPE svg PUBLIC "-//W3C//DTD SVG 20001102//EN" "http://www.w3.org/TR/2000/CR-SVG-20001102/DTD/svg-20001102.dtd">
<svg width="752.0" height="827.0" xmlns="http://www.w3.org/2000/svg" version="1.1">
  <style type="text/css">
text {
  font-family: 'SansSerif';
  font-size: 12px;
}
.node .shape {
fill: #ffffff;
stroke: #000000;
}
.node text {
fill: #000000;
}
.node_node_style .shape {
fill: #ffffcc;
stroke: #000000;
}
.node_node_style text {
fill: #000000;
}
.node_node_style_2 .shape {
fill: #ffffff;
stroke: #000000;
}
.node_node_style_2 text {
fill: #000000;
}
.node_node_style_4 .shape {
fill: #ffffff;
stroke: #000000;
}
.node_node_style_4 text {
fill: #000000;
}
.node_node_style .shape {
fill: #ffffcc;
stroke: #000000;
}
.node_node_style text {
fill: #000000;
}
.node_glia_node .shape {
fill: #53ab27;
stroke: #000000;
}
.node_glia_node text {
fill: #000000;
}
.node_node_style_4 .shape {
fill: #ffffff;
stroke: #000000;
}
.node_node_style_4 text {
fill: #000000;
}
.node_node_style_5 .shape {
fill: #ff6565;
stroke: #000000;
}
.node_node_style_5 text {
fill: #000000;
}
.node_node_style .shape {
fill: #ffffcc;
stroke: #000000;
}
.node_node_style text {
fill: #000000;
}
.node_node_style_2 .shape {
fill: #ffffff;
stroke: #000000;
}
.node_node_style_2 text {
fill: #000000;
}
.node_node_style_4 .shape {
fill: #ffffff;
stroke: #000000;
}
.node_node_style_4 text {
fill: #000000;
}
.node_node_style_3 .shape {
fill: #999999;
stroke: #000000;
}
.node_node_style_3 text {
fill: #000000;
}
.node_glia_node .shape {
fill: #339900;
stroke: #000000;
}
.node_glia_node text {
fill: #000000;
}
.node_node_style_5 .shape {
fill: #9999ff;
stroke: #000000;
}
.node_node_style_5 text {
fill: #000000;
}
.node_node_style_6 .shape {
fill: #add5fa;
stroke: #000000;
}
.node_node_style_6 text {
fill: #000000;
}
.node_node_style_7 .shape {
fill: #ea80ea;
stroke: #000000;
}
.node_node_style_7 text {
fill: #000000;
}
.node_node_style_8 .shape {
fill: #0c7921;
stroke: #000000;
}
.node_node_style_8 text {
fill: #000000;
}
.edge {
stroke: #000000;
fill: none;
stroke-width: 1;
}
.edge_POSITIVE {
stroke: #00c800;
}
.edge_NEGATIVE {
stroke: #c80000;
}
.edge_DUAL {
stroke: #0000c8;
}
.edge_edge_style_2 {
stroke: #c80000;
fill: none;
stroke-width: 1;
}
.edge_edge_style {
stroke: #00cc33;
fill: none;
stroke-width: 1;
}
.edge_edge_style_2 {
stroke: #c80000;
fill: none;
stroke-width: 1;
}
.edge_edge_style {
stroke: #00c800;
fill: none;
stroke-width: 1;
}
.edge_circuit_edge_2 {
stroke: #00c800;
fill: none;
stroke-width: 1;
}
.edge_circuit_edge {
stroke: #c80000;
fill: none;
stroke-width: 1;
}
</style>
  <defs>
    <marker id="Marker_NEGATIVE_c80000" viewBox="-7 -7 12 15" orient="auto" markerHeight="9" markerWidth="9">
      <path stroke="#c80000" fill="#c80000" d="M -1 -4 L -1 4 L 1 4 L 1 -4 z"/>
    </marker>
  </defs>
  <path class="edge edge_NEGATIVE edge_edge_style_2" marker-end="url(#Marker_NEGATIVE_c80000)" d="M 310.0 437.0 L 266.0 437.0 L 266.0 491.0"/>
  <defs>
    <marker id="Marker_NEGATIVE_00cc33" viewBox="-7 -7 12 15" orient="auto" markerHeight="9" markerWidth="9">
      <path stroke="#00cc33" fill="#00cc33" d="M -1 -4 L -1 4 L 1 4 L 1 -4 z"/>
    </marker>
  </defs>
  <path class="edge edge_NEGATIVE edge_edge_style" marker-end="url(#Marker_NEGATIVE_00cc33)" d="M 338.0 452.0 L 338.0 453.0 L 338.0 490.0"/>
  <defs>
    <marker id="Marker_POSITIVE_00cc33" viewBox="-7 -7 12 15" orient="auto" markerHeight="9" markerWidth="9">
      <path stroke="#00cc33" fill="#00cc33" d="M -4 -5 L -2 0 L -4 5 L 2 0 z"/>
    </marker>
  </defs>
  <path class="edge edge_POSITIVE edge_edge_style" marker-end="url(#Marker_POSITIVE_00cc33)" d="M 719.0 294.0 L 719.0 329.0"/>
  <path class="edge edge_POSITIVE edge_edge_style" marker-end="url(#Marker_POSITIVE_00cc33)" d="M 338.0 348.0 Q 338.0,376.0 338.0,405.0 Q 338.0,410.0 338.0,416.0"/>
  <path class="edge edge_POSITIVE edge_edge_style" marker-end="url(#Marker_POSITIVE_00cc33)" d="M 455.0 134.0 L 455.0 154.0"/>
  <path class="edge edge_POSITIVE edge_edge_style" marker-end="url(#Marker_POSITIVE_00cc33)" d="M 337.0 531.0 L 337.0 551.0"/>
  <path class="edge edge_POSITIVE edge_edge_style" marker-end="url(#Marker_POSITIVE_00cc33)" d="M 717.0 137.0 L 717.0 188.0"/>
  <path class="edge edge_POSITIVE edge_edge_style" marker-end="url(#Marker_POSITIVE_00cc33)" d="M 456.0 287.0 L 456.0 288.0 L 456.0 302.0"/>
  <path class="edge edge_POSITIVE edge_edge_style" marker-end="url(#Marker_POSITIVE_00cc33)" d="M 183.0 597.0 L 183.0 696.0 L 372.0 696.0"/>
  <path class="edge edge_POSITIVE edge_edge_style" marker-end="url(#Marker_POSITIVE_00cc33)" d="M 175.0 597.0 L 175.0 763.0 L 288.0 764.0 L 372.0 764.0"/>
  <path class="edge edge_POSITIVE edge_edge_style" marker-end="url(#Marker_POSITIVE_00cc33)" d="M 179.0 597.0 L 179.0 738.0 L 652.0 738.0"/>
  <path class="edge edge_POSITIVE edge_edge_style" marker-end="url(#Marker_POSITIVE_00cc33)" d="M 170.0 597.0 L 170.0 813.0 L 374.0 813.0"/>
  <path class="edge edge_POSITIVE edge_edge_style" marker-end="url(#Marker_POSITIVE_00cc33)" d="M 199.0 558.0 L 199.0 549.0 L 226.0 528.0 L 229.0 528.0"/>
  <defs>
    <marker id="Marker_POSITIVE_00c800" viewBox="-7 -7 12 15" orient="auto" markerHeight="9" markerWidth="9">
      <path stroke="#00c800" fill="#00c800" d="M -4 -5 L -2 0 L -4 5 L 2 0 z"/>
    </marker>
  </defs>
  <path class="edge edge_POSITIVE" marker-end="url(#Marker_POSITIVE_00c800)" d="M 188.0 597.0 L 188.0 609.0 L 475.0 609.0"/>
  <path class="edge edge_POSITIVE edge_edge_style" marker-end="url(#Marker_POSITIVE_00cc33)" d="M 456.0 239.0 L 456.0 251.0"/>
  <path class="edge edge_POSITIVE edge_edge_style" marker-end="url(#Marker_POSITIVE_00cc33)" d="M 483.0 224.0 L 483.0 224.0 L 521.0 256.0 L 522.0 515.0 L 594.0 515.0"/>
  <path class="edge edge_NEGATIVE edge_edge_style_2" marker-end="url(#Marker_NEGATIVE_c80000)" d="M 555.0 300.0 L 555.0 334.0"/>
  <path class="edge edge_NEGATIVE edge_edge_style_2" marker-end="url(#Marker_NEGATIVE_c80000)" d="M 259.0 315.0 L 259.0 335.0 L 313.0 335.0"/>
  <path class="edge edge_POSITIVE edge_edge_style" marker-end="url(#Marker_POSITIVE_00cc33)" d="M 253.0 315.0 L 253.0 373.0"/>
  <path class="edge edge_POSITIVE edge_edge_style" marker-end="url(#Marker_POSITIVE_00cc33)" d="M 455.0 343.0 L 455.0 511.0 L 368.0 511.0"/>
  <path class="edge edge_NEGATIVE edge_edge_style_2" marker-end="url(#Marker_NEGATIVE_c80000)" d="M 451.0 343.0 L 451.0 436.0 L 365.0 436.0"/>
  <path class="edge edge_NEGATIVE edge_edge_style_2" marker-end="url(#Marker_NEGATIVE_c80000)" d="M 448.0 343.0 L 448.0 396.0 L 281.0 396.0"/>
  <path class="edge edge_POSITIVE edge_edge_style" marker-end="url(#Marker_POSITIVE_00cc33)" d="M 467.0 343.0 L 467.0 691.0 L 648.0 691.0"/>
  <path class="edge edge_POSITIVE edge_edge_style" marker-end="url(#Marker_POSITIVE_00cc33)" d="M 462.0 343.0 L 462.0 732.0 L 652.0 732.0"/>
  <path class="edge edge_NEGATIVE edge_edge_style_2" marker-end="url(#Marker_NEGATIVE_c80000)" d="M 459.0 343.0 L 459.0 571.0 L 368.0 571.0"/>
  <path class="edge edge_POSITIVE edge_edge_style" marker-end="url(#Marker_POSITIVE_00cc33)" d="M 503.0 632.0 L 503.0 806.0 L 446.0 806.0"/>
  <path class="edge edge_NEGATIVE edge_edge_style_2" marker-end="url(#Marker_NEGATIVE_c80000)" d="M 254.0 137.0 L 254.0 203.0"/>
  <path class="edge edge_POSITIVE edge_edge_style" marker-end="url(#Marker_POSITIVE_00cc33)" d="M 718.0 224.0 L 718.0 258.0"/>
  <path class="edge edge_POSITIVE edge_edge_style" marker-end="url(#Marker_POSITIVE_00cc33)" d="M 691.0 212.0 L 642.0 212.0 L 642.0 268.0"/>
  <path class="edge edge_POSITIVE edge_edge_style" marker-end="url(#Marker_POSITIVE_00cc33)" d="M 622.0 530.0 L 622.0 681.0 L 648.0 681.0"/>
  <path class="edge edge_POSITIVE edge_edge_style" marker-end="url(#Marker_POSITIVE_00cc33)" d="M 617.0 530.0 L 617.0 726.0 L 652.0 726.0"/>
  <path class="edge edge_NEGATIVE edge_edge_style_2" marker-end="url(#Marker_NEGATIVE_c80000)" d="M 617.0 284.0 L 581.0 284.0"/>
  <path class="edge edge_POSITIVE edge_edge_style" marker-end="url(#Marker_POSITIVE_00cc33)" d="M 652.0 272.0 L 652.0 257.0 L 679.0 257.0 L 679.0 284.0 L 667.0 284.0"/>
  <path class="edge edge_NEGATIVE edge_edge_style_2" marker-end="url(#Marker_NEGATIVE_c80000)" d="M 585.0 349.0 Q 622.0,349.0 659.0,349.0 Q 673.0,349.0 688.0,349.0"/>
  <path class="edge edge_NEGATIVE edge_edge_style_2" marker-end="url(#Marker_NEGATIVE_c80000)" d="M 557.0 375.0 L 557.0 463.0 L 599.0 463.0"/>
  <path class="edge edge_POSITIVE edge_edge_style" marker-end="url(#Marker_POSITIVE_00cc33)" d="M 543.0 375.0 L 543.0 763.0 L 444.0 763.0"/>
  <path class="edge edge_NEGATIVE edge_edge_style_2" marker-end="url(#Marker_NEGATIVE_c80000)" d="M 552.0 375.0 L 552.0 506.0 L 594.0 506.0"/>
  <path class="edge edge_NEGATIVE edge_edge_style_2" marker-end="url(#Marker_NEGATIVE_c80000)" d="M 690.0 362.0 Q 663.0,362.0 636.0,362.0 C 626.0,362.0 626.0,362.0 616.0,362.0 Q 601.0,362.0 586.0,362.0"/>
  <path class="edge edge_NEGATIVE edge_edge_style_2" marker-end="url(#Marker_NEGATIVE_c80000)" d="M 716.0 370.0 L 716.0 462.0 L 661.0 462.0"/>
  <path class="edge edge_POSITIVE edge_edge_style" marker-end="url(#Marker_POSITIVE_00cc33)" d="M 740.0 370.0 L 740.0 812.0 L 446.0 812.0"/>
  <path class="edge edge_POSITIVE edge_edge_style" marker-end="url(#Marker_POSITIVE_00cc33)" d="M 737.0 370.0 L 737.0 734.0 L 724.0 734.0"/>
  <path class="edge edge_POSITIVE edge_edge_style" marker-end="url(#Marker_POSITIVE_00cc33)" d="M 720.0 370.0 L 720.0 514.0 L 656.0 514.0"/>
  <path class="edge edge_POSITIVE edge_edge_style" marker-end="url(#Marker_POSITIVE_00cc33)" d="M 730.0 370.0 L 730.0 611.0 L 537.0 611.0"/>
  <path class="edge edge_POSITIVE edge_edge_style" marker-end="url(#Marker_POSITIVE_00cc33)" d="M 724.0 370.0 L 724.0 581.0 L 368.0 581.0"/>
  <path class="edge edge_POSITIVE edge_edge_style" marker-end="url(#Marker_POSITIVE_00cc33)" d="M 263.0 532.0 L 263.0 689.0 L 372.0 689.0"/>
  <path class="edge edge_POSITIVE edge_edge_style" marker-end="url(#Marker_POSITIVE_00cc33)" d="M 260.0 532.0 L 260.0 760.0 L 372.0 760.0"/>
  <path class="edge edge_POSITIVE edge_edge_style" marker-end="url(#Marker_POSITIVE_00cc33)" d="M 255.0 532.0 L 255.0 809.0 L 374.0 809.0"/>
  <path class="edge edge_POSITIVE edge_edge_style" marker-end="url(#Marker_POSITIVE_00cc33)" d="M 239.0 532.0 L 239.0 540.0 L 212.0 561.0 L 209.0 561.0"/>
  <path class="edge edge_POSITIVE edge_edge_style" marker-end="url(#Marker_POSITIVE_00cc33)" d="M 267.0 532.0 L 267.0 575.0 L 306.0 575.0"/>
  <path class="edge edge_POSITIVE edge_edge_style" marker-end="url(#Marker_POSITIVE_00cc33)" d="M 456.0 190.0 L 456.0 203.0"/>
  <path class="edge edge_NEGATIVE edge_edge_style_2" marker-end="url(#Marker_NEGATIVE_c80000)" d="M 253.0 239.0 L 253.0 279.0"/>
  <path class="edge edge_NEGATIVE edge_edge_style_2" marker-end="url(#Marker_NEGATIVE_c80000)" d="M 227.0 232.0 L 228.0 232.0 L 181.0 263.0 L 181.0 556.0"/>
  <path class="edge edge_POSITIVE edge_edge_style" marker-end="url(#Marker_POSITIVE_00cc33)" d="M 254.0 409.0 L 254.0 410.0 L 254.0 491.0"/>
  <g id="Ptc" class="node node_node_style_2">
    <rect id="Ptc_shape" class="shape" width="50" height="30" x="229" y="207"/>
    <text  id="Ptc_text" x="254" y="225" text-anchor="middle">Ptc</text>
  </g>
  <g id="Smo" class="node node_node_style_2">
    <rect id="Smo_shape" class="shape" width="50" height="30" x="228" y="283"/>
    <text  id="Smo_text" x="253" y="301" text-anchor="middle">Smo</text>
  </g>
  <g id="Pka" class="node node_node_style_4">
    <ellipse id="Pka_shape" class="shape" cx="339.5" cy="333.5" rx="22.5" ry="12.5"/>
    <text  id="Pka_text" x="339" y="336" text-anchor="middle">Pka</text>
  </g>
  <g id="Ci_act" class="node node_node_style_2">
    <rect id="Ci_act_shape" class="shape" width="50" height="30" x="228" y="377"/>
    <text  id="Ci_act_text" x="253" y="395" text-anchor="middle">Ci_act</text>
  </g>
  <g id="Ci_rep" class="node node_node_style_2">
    <rect id="Ci_rep_shape" class="shape" width="50" height="30" x="312" y="420"/>
    <text  id="Ci_rep_text" x="337" y="438" text-anchor="middle">Ci_rep</text>
  </g>
  <g id="Fz" class="node node_node_style_2">
    <rect id="Fz_shape" class="shape" width="50" height="30" x="431" y="158"/>
    <text  id="Fz_text" x="456" y="176" text-anchor="middle">Fz</text>
  </g>
  <g id="Arm" class="node node_node_style_2">
    <rect id="Arm_shape" class="shape" width="50" height="30" x="431" y="207"/>
    <text  id="Arm_text" x="456" y="225" text-anchor="middle">Arm</text>
  </g>
  <g id="Pan" class="node node_node_style_2">
    <rect id="Pan_shape" class="shape" width="50" height="30" x="432" y="255"/>
    <text  id="Pan_text" x="457" y="273" text-anchor="middle">Pan</text>
  </g>
  <g id="Rl" class="node node_node_style_2">
    <rect id="Rl_shape" class="shape" width="50" height="30" x="693" y="192"/>
    <text  id="Rl_text" x="718" y="210" text-anchor="middle">Rl</text>
  </g>
  <g id="Pnt" class="node node_node_style_2">
    <rect id="Pnt_shape" class="shape" width="50" height="30" x="694" y="262"/>
    <text  id="Pnt_text" x="719" y="280" text-anchor="middle">Pnt</text>
  </g>
  <g id="pGro" class="node node_node_style_4">
    <ellipse id="pGro_shape" class="shape" cx="641.5" cy="284.5" rx="22.5" ry="12.5"/>
    <text  id="pGro_text" x="641" y="287" text-anchor="middle">pGro</text>
  </g>
  <g id="Gro" class="node node_node_style_4">
    <ellipse id="Gro_shape" class="shape" cx="555.5" cy="285.5" rx="22.5" ry="12.5"/>
    <text  id="Gro_text" x="555" y="288" text-anchor="middle">Gro</text>
  </g>
  <g id="Hh" class="node node_node_style">
    <rect id="Hh_shape" class="shape" width="60" height="40" x="224" y="95"/>
    <text  id="Hh_text" x="254" y="118" text-anchor="middle">Hh</text>
  </g>
  <g id="wg" class="node node_node_style_3">
    <rect id="wg_shape" class="shape" width="55" height="35" x="233" y="495"/>
    <text  id="wg_text" x="260" y="515" text-anchor="middle">wg</text>
  </g>
  <g id="Wg" class="node node_node_style">
    <rect id="Wg_shape" class="shape" width="60" height="40" x="425" y="92"/>
    <text  id="Wg_text" x="455" y="115" text-anchor="middle">Wg</text>
  </g>
  <g id="en" class="node node_node_style_3">
    <rect id="en_shape" class="shape" width="55" height="35" x="430" y="306"/>
    <text  id="en_text" x="457" y="326" text-anchor="middle">en</text>
  </g>
  <g id="hh" class="node node_node_style_3">
    <rect id="hh_shape" class="shape" width="55" height="35" x="310" y="494"/>
    <text  id="hh_text" x="337" y="514" text-anchor="middle">hh</text>
  </g>
  <g id="gsb" class="node node_node_style_3">
    <rect id="gsb_shape" class="shape" width="55" height="35" x="151" y="560"/>
    <text  id="gsb_text" x="178" y="580" text-anchor="middle">gsb</text>
  </g>
  <g id="Egfr" class="node node_node_style">
    <rect id="Egfr_shape" class="shape" width="60" height="40" x="687" y="95"/>
    <text  id="Egfr_text" x="717" y="118" text-anchor="middle">Egfr</text>
  </g>
  <g id="vnd" class="node node_node_style_3">
    <rect id="vnd_shape" class="shape" width="55" height="35" x="692" y="333"/>
    <text  id="vnd_text" x="719" y="353" text-anchor="middle">vnd</text>
  </g>
  <g id="ind" class="node node_node_style_3">
    <rect id="ind_shape" class="shape" width="55" height="35" x="528" y="338"/>
    <text  id="ind_text" x="555" y="358" text-anchor="middle">ind</text>
  </g>
  <g id="Dr" class="node node_node_style_3">
    <rect id="Dr_shape" class="shape" width="55" height="35" x="603" y="441"/>
    <text  id="Dr_text" x="630" y="461" text-anchor="middle">Dr</text>
  </g>
  <g id="svp" class="node node_node_style_3">
    <rect id="svp_shape" class="shape" width="55" height="35" x="479" y="595"/>
    <text  id="svp_text" x="506" y="615" text-anchor="middle">svp</text>
  </g>
  <g id="ac" class="node node_node_style_3">
    <rect id="ac_shape" class="shape" width="55" height="35" x="598" y="493"/>
    <text  id="ac_text" x="625" y="513" text-anchor="middle">ac</text>
  </g>
  <g id="hkb" class="node node_node_style_3">
    <rect id="hkb_shape" class="shape" width="55" height="35" x="310" y="555"/>
    <text  id="hkb_text" x="337" y="575" text-anchor="middle">hkb</text>
  </g>
  <g id="NB7_1" class="node">
    <ellipse id="NB7_1_shape" class="shape" cx="688.5" cy="731.5" rx="32.5" ry="12.5"/>
    <text  id="NB7_1_text" x="688" y="734" text-anchor="middle">NB7_1</text>
  </g>
  <g id="NB7_4" class="node">
    <ellipse id="NB7_4_shape" class="shape" cx="684.5" cy="686.5" rx="32.5" ry="12.5"/>
    <text  id="NB7_4_text" x="684" y="689" text-anchor="middle">NB7_4</text>
  </g>
  <g id="NB5_6" class="node">
    <ellipse id="NB5_6_shape" class="shape" cx="408.5" cy="691.5" rx="32.5" ry="12.5"/>
    <text  id="NB5_6_text" x="408" y="694" text-anchor="middle">NB5_6</text>
  </g>
  <g id="NB5_3" class="node">
    <ellipse id="NB5_3_shape" class="shape" cx="408.5" cy="760.5" rx="32.5" ry="12.5"/>
    <text  id="NB5_3_text" x="408" y="763" text-anchor="middle">NB5_3</text>
  </g>
  <g id="NB5_2" class="node">
    <ellipse id="NB5_2_shape" class="shape" cx="410.5" cy="809.5" rx="32.5" ry="12.5"/>
    <text  id="NB5_2_text" x="410" y="812" text-anchor="middle">NB5_2</text>
  </g>
</svg>
