<?xml version="1.0" encoding="UTF-8"?>
<!DOCTYPE svg PUBLIC "-//W3C//DTD SVG 20001102//EN" "http://www.w3.org/TR/2000/CR-SVG-20001102/DTD/svg-20001102.dtd">
<svg width="847.0" height="549.0" xmlns="http://www.w3.org/2000/svg" version="1.1">
  <style type="text/css">
text {
  font-family: 'SansSerif';
  font-size: 12px;
}
.node .shape {
fill: #ffffff;
stroke: #000000;
}
.node text {
fill: #000000;
}
.node_node_style .shape {
fill: #ffffcc;
stroke: #000000;
}
.node_node_style text {
fill: #000000;
}
.node_node_style_2 .shape {
fill: #ffffff;
stroke: #000000;
}
.node_node_style_2 text {
fill: #000000;
}
.node_node_style_4 .shape {
fill: #ffffff;
stroke: #000000;
}
.node_node_style_4 text {
fill: #000000;
}
.node_node_style_3 .shape {
fill: #ff9999;
stroke: #000000;
}
.node_node_style_3 text {
fill: #000000;
}
.node_node_style .shape {
fill: #ffffcc;
stroke: #000000;
}
.node_node_style text {
fill: #000000;
}
.node_glia_node .shape {
fill: #339900;
stroke: #000000;
}
.node_glia_node text {
fill: #000000;
}
.node_node_style_4 .shape {
fill: #ffffff;
stroke: #000000;
}
.node_node_style_4 text {
fill: #000000;
}
.node_node_style_5 .shape {
fill: #9999ff;
stroke: #000000;
}
.node_node_style_5 text {
fill: #000000;
}
.edge {
stroke: #000000;
fill: none;
stroke-width: 1;
}
.edge_POSITIVE {
stroke: #00c800;
}
.edge_NEGATIVE {
stroke: #c80000;
}
.edge_DUAL {
stroke: #0000c8;
}
.edge_edge_style_2 {
stroke: #c80000;
fill: none;
stroke-width: 1;
}
.edge_edge_style {
stroke: #00c800;
fill: none;
stroke-width: 1;
}
.edge_edge_style_2 {
stroke: #c80000;
fill: none;
stroke-width: 1;
}
.edge_edge_style {
stroke: #00c800;
fill: none;
stroke-width: 1;
}
</style>
  <defs>
    <marker id="Marker_NEGATIVE_c80000" viewBox="-7 -7 12 15" orient="auto" markerHeight="9" markerWidth="9">
      <path stroke="#c80000" fill="#c80000" d="M -1 -4 L -1 4 L 1 4 L 1 -4 z"/>
    </marker>
  </defs>
  <path class="edge edge_NEGATIVE" marker-end="url(#Marker_NEGATIVE_c80000)" d="M 259.0 359.0 L 259.0 288.0 L 259.0 145.0"/>
  <path class="edge edge_NEGATIVE" marker-end="url(#Marker_NEGATIVE_c80000)" d="M 625.0 147.0 L 625.0 278.0 L 625.0 305.0"/>
  <path class="edge edge_NEGATIVE" marker-end="url(#Marker_NEGATIVE_c80000)" d="M 603.0 147.0 L 603.0 214.0 L 530.0 214.0"/>
  <defs>
    <marker id="Marker_POSITIVE_00c800" viewBox="-7 -7 12 15" orient="auto" markerHeight="9" markerWidth="9">
      <path stroke="#00c800" fill="#00c800" d="M -4 -5 L -2 0 L -4 5 L 2 0 z"/>
    </marker>
  </defs>
  <path class="edge edge_POSITIVE" marker-end="url(#Marker_POSITIVE_00c800)" d="M 582.0 131.0 L 556.0 131.0 L 556.0 320.0 L 472.0 320.0"/>
  <path class="edge edge_POSITIVE edge_edge_style" marker-end="url(#Marker_POSITIVE_00c800)" d="M 727.0 292.0 L 727.0 307.0"/>
  <path class="edge edge_POSITIVE edge_edge_style" marker-end="url(#Marker_POSITIVE_00c800)" d="M 701.0 279.0 L 660.0 279.0 L 660.0 259.0"/>
  <path class="edge edge_POSITIVE" marker-end="url(#Marker_POSITIVE_00c800)" d="M 402.0 74.0 L 442.0 74.0"/>
  <path class="edge edge_POSITIVE" marker-end="url(#Marker_POSITIVE_00c800)" d="M 503.0 242.0 L 503.0 310.0 L 472.0 310.0"/>
  <path class="edge edge_POSITIVE" marker-end="url(#Marker_POSITIVE_00c800)" d="M 470.0 222.0 L 415.0 222.0"/>
  <path class="edge edge_NEGATIVE edge_edge_style_2" marker-end="url(#Marker_NEGATIVE_c80000)" d="M 780.0 225.0 L 757.0 225.0"/>
  <path class="edge edge_NEGATIVE edge_edge_style_2" marker-end="url(#Marker_NEGATIVE_c80000)" d="M 605.0 307.0 L 605.0 224.0 L 530.0 224.0"/>
  <path class="edge edge_NEGATIVE" marker-end="url(#Marker_NEGATIVE_c80000)" d="M 614.0 307.0 L 614.0 216.0 L 614.0 148.0"/>
  <path class="edge edge_POSITIVE" marker-end="url(#Marker_POSITIVE_00c800)" d="M 585.0 331.0 L 581.0 331.0 L 472.0 331.0"/>
  <path class="edge edge_POSITIVE edge_edge_style" marker-end="url(#Marker_POSITIVE_00c800)" d="M 730.0 167.0 L 729.0 206.0"/>
  <path class="edge edge_POSITIVE" marker-end="url(#Marker_POSITIVE_00c800)" d="M 471.0 91.0 L 471.0 105.0"/>
  <path class="edge edge_POSITIVE" marker-end="url(#Marker_POSITIVE_00c800)" d="M 311.0 311.0 L 311.0 435.0 L 405.0 435.0"/>
  <path class="edge edge_POSITIVE" marker-end="url(#Marker_POSITIVE_00c800)" d="M 305.0 277.0 L 305.0 124.0 L 441.0 124.0"/>
  <path class="edge edge_POSITIVE" marker-end="url(#Marker_POSITIVE_00c800)" d="M 436.0 417.0 L 436.0 349.0"/>
  <path class="edge edge_POSITIVE" marker-end="url(#Marker_POSITIVE_00c800)" d="M 407.0 427.0 L 369.0 427.0 L 369.0 245.0"/>
  <path class="edge edge_NEGATIVE" marker-end="url(#Marker_NEGATIVE_c80000)" d="M 689.0 178.0 L 689.0 124.0 L 642.0 124.0"/>
  <path class="edge edge_POSITIVE" marker-end="url(#Marker_POSITIVE_00c800)" d="M 608.0 407.0 L 608.0 437.0 L 467.0 437.0"/>
  <path class="edge edge_POSITIVE" marker-end="url(#Marker_POSITIVE_00c800)" d="M 585.0 382.0 L 449.0 382.0 L 449.0 349.0"/>
  <path class="edge edge_POSITIVE" marker-end="url(#Marker_POSITIVE_00c800)" d="M 585.0 393.0 L 389.0 393.0 L 383.0 393.0 L 383.0 282.0 L 383.0 245.0"/>
  <path class="edge edge_NEGATIVE" marker-end="url(#Marker_NEGATIVE_c80000)" d="M 351.0 473.0 L 282.0 473.0"/>
  <path class="edge edge_POSITIVE" marker-end="url(#Marker_POSITIVE_00c800)" d="M 351.0 467.0 L 302.0 467.0 L 302.0 312.0"/>
  <path class="edge edge_NEGATIVE" marker-end="url(#Marker_NEGATIVE_c80000)" d="M 502.0 131.0 L 545.0 131.0 L 545.0 455.0"/>
  <path class="edge edge_POSITIVE" marker-end="url(#Marker_POSITIVE_00c800)" d="M 445.0 116.0 L 445.0 116.0 L 367.0 116.0 L 292.0 116.0"/>
  <path class="edge edge_POSITIVE" marker-end="url(#Marker_POSITIVE_00c800)" d="M 502.0 124.0 L 581.0 124.0 L 581.0 124.0"/>
  <path class="edge edge_POSITIVE" marker-end="url(#Marker_POSITIVE_00c800)" d="M 443.0 132.0 L 334.0 132.0 L 333.0 325.0 L 400.0 325.0"/>
  <path class="edge edge_POSITIVE" marker-end="url(#Marker_POSITIVE_00c800)" d="M 443.0 139.0 L 377.0 139.0 L 377.0 198.0"/>
  <path class="edge edge_POSITIVE edge_edge_style" marker-end="url(#Marker_POSITIVE_00c800)" d="M 728.0 242.0 L 728.0 256.0"/>
  <path class="edge edge_NEGATIVE" marker-end="url(#Marker_NEGATIVE_c80000)" d="M 517.0 474.0 L 406.0 474.0"/>
  <path class="edge edge_NEGATIVE" marker-end="url(#Marker_NEGATIVE_c80000)" d="M 571.0 469.0 L 615.0 469.0 L 615.0 408.0"/>
  <path class="edge edge_POSITIVE edge_edge_style" marker-end="url(#Marker_POSITIVE_00c800)" d="M 700.0 326.0 L 645.0 326.0"/>
  <path class="edge edge_POSITIVE" marker-end="url(#Marker_POSITIVE_00c800)" d="M 258.0 459.0 L 258.0 415.0 L 258.0 394.0"/>
  <path class="edge edge_NEGATIVE" marker-end="url(#Marker_NEGATIVE_c80000)" d="M 544.0 502.0 L 544.0 492.0"/>
  <path class="edge edge_NEGATIVE edge_edge_style_2" marker-end="url(#Marker_NEGATIVE_c80000)" d="M 656.0 229.0 L 656.0 193.0 L 664.0 193.0"/>
  <path class="edge edge_POSITIVE edge_edge_style" marker-end="url(#Marker_POSITIVE_00c800)" d="M 668.0 231.0 L 668.0 216.0 L 695.0 216.0 L 695.0 243.0 L 683.0 243.0"/>
  <g id="Hh_ex" class="node node_node_style">
    <rect id="Hh_ex_shape" class="shape" width="60" height="40" x="514" y="504"/>
    <text  id="Hh_ex_text" x="544" y="527" text-anchor="middle">Hh_ex</text>
  </g>
  <g id="Wg_ex" class="node node_node_style">
    <rect id="Wg_ex_shape" class="shape" width="60" height="40" x="340" y="54"/>
    <text  id="Wg_ex_text" x="370" y="77" text-anchor="middle">Wg_ex</text>
  </g>
  <g id="Spi" class="node node_node_style">
    <rect id="Spi_shape" class="shape" width="60" height="40" x="701" y="125"/>
    <text  id="Spi_text" x="731" y="148" text-anchor="middle">Spi</text>
  </g>
  <g id="Aos" class="node node_node_style">
    <rect id="Aos_shape" class="shape" width="60" height="40" x="782" y="206"/>
    <text  id="Aos_text" x="812" y="229" text-anchor="middle">Aos</text>
  </g>
  <g id="Ptc" class="node node_node_style_2">
    <rect id="Ptc_shape" class="shape" width="50" height="30" x="519" y="459"/>
    <text  id="Ptc_text" x="544" y="477" text-anchor="middle">Ptc</text>
  </g>
  <g id="Smo" class="node node_node_style_2">
    <rect id="Smo_shape" class="shape" width="50" height="30" x="353" y="459"/>
    <text  id="Smo_text" x="378" y="477" text-anchor="middle">Smo</text>
  </g>
  <g id="Pka" class="node node_node_style_4">
    <ellipse id="Pka_shape" class="shape" cx="256.5" cy="473.5" rx="22.5" ry="12.5"/>
    <text  id="Pka_text" x="256" y="476" text-anchor="middle">Pka</text>
  </g>
  <g id="Ci_act" class="node node_node_style_2">
    <rect id="Ci_act_shape" class="shape" width="50" height="30" x="275" y="279"/>
    <text  id="Ci_act_text" x="300" y="297" text-anchor="middle">Ci_act</text>
  </g>
  <g id="wg" class="node node_node_style_3">
    <rect id="wg_shape" class="shape" width="55" height="35" x="409" y="419"/>
    <text  id="wg_text" x="436" y="439" text-anchor="middle">wg</text>
  </g>
  <g id="Ci_rep" class="node node_node_style_2">
    <rect id="Ci_rep_shape" class="shape" width="50" height="30" x="234" y="361"/>
    <text  id="Ci_rep_text" x="259" y="379" text-anchor="middle">Ci_rep</text>
  </g>
  <g id="Fz" class="node node_node_style_2">
    <rect id="Fz_shape" class="shape" width="50" height="30" x="446" y="59"/>
    <text  id="Fz_text" x="471" y="77" text-anchor="middle">Fz</text>
  </g>
  <g id="en" class="node node_node_style_3">
    <rect id="en_shape" class="shape" width="55" height="35" x="445" y="109"/>
    <text  id="en_text" x="472" y="129" text-anchor="middle">en</text>
  </g>
  <g id="hh" class="node node_node_style_3">
    <rect id="hh_shape" class="shape" width="55" height="35" x="234" y="107"/>
    <text  id="hh_text" x="261" y="127" text-anchor="middle">hh</text>
  </g>
  <g id="Egfr" class="node node_node_style_2">
    <rect id="Egfr_shape" class="shape" width="50" height="30" x="704" y="210"/>
    <text  id="Egfr_text" x="729" y="228" text-anchor="middle">Egfr</text>
  </g>
  <g id="Rl" class="node node_node_style_2">
    <rect id="Rl_shape" class="shape" width="50" height="30" x="703" y="260"/>
    <text  id="Rl_text" x="728" y="278" text-anchor="middle">Rl</text>
  </g>
  <g id="Pnt" class="node node_node_style_2">
    <rect id="Pnt_shape" class="shape" width="50" height="30" x="702" y="311"/>
    <text  id="Pnt_text" x="727" y="329" text-anchor="middle">Pnt</text>
  </g>
  <g id="pGro" class="node node_node_style_4">
    <ellipse id="pGro_shape" class="shape" cx="657.5" cy="243.5" rx="22.5" ry="12.5"/>
    <text  id="pGro_text" x="657" y="246" text-anchor="middle">pGro</text>
  </g>
  <g id="Gro" class="node node_node_style_4">
    <ellipse id="Gro_shape" class="shape" cx="690.5" cy="192.5" rx="22.5" ry="12.5"/>
    <text  id="Gro_text" x="690" y="195" text-anchor="middle">Gro</text>
  </g>
  <g id="ind" class="node node_node_style_3">
    <rect id="ind_shape" class="shape" width="55" height="35" x="584" y="110"/>
    <text  id="ind_text" x="611" y="130" text-anchor="middle">ind</text>
  </g>
  <g id="vnd" class="node node_node_style_3">
    <rect id="vnd_shape" class="shape" width="55" height="35" x="587" y="309"/>
    <text  id="vnd_text" x="614" y="329" text-anchor="middle">vnd</text>
  </g>
  <g id="msh" class="node node_node_style_3">
    <rect id="msh_shape" class="shape" width="55" height="35" x="472" y="205"/>
    <text  id="msh_text" x="499" y="225" text-anchor="middle">msh</text>
  </g>
  <g id="gsb" class="node node_node_style_3">
    <rect id="gsb_shape" class="shape" width="55" height="35" x="587" y="370"/>
    <text  id="gsb_text" x="614" y="390" text-anchor="middle">gsb</text>
  </g>
  <g id="Glial_cells" class="node node_glia_node">
    <rect id="Glial_cells_shape" class="shape" width="65" height="40" x="347" y="202"/>
    <text  id="Glial_cells_text" x="379" y="225" text-anchor="middle">Glial_cells</text>
  </g>
  <g id="Neurons" class="node node_node_style_5">
    <rect id="Neurons_shape" class="shape" width="65" height="40" x="404" y="306"/>
    <text  id="Neurons_text" x="436" y="329" text-anchor="middle">Neurons</text>
  </g>
</svg>
