<?xml version="1.0" encoding="UTF-8"?>
<!DOCTYPE svg PUBLIC "-//W3C//DTD SVG 20001102//EN" "http://www.w3.org/TR/2000/CR-SVG-20001102/DTD/svg-20001102.dtd">
<svg width="807.0" height="826.0" xmlns="http://www.w3.org/2000/svg" version="1.1">
  <style type="text/css">
text {
  font-family: 'SansSerif';
  font-size: 12px;
}
.node .shape {
fill: #ffffff;
stroke: #000000;
}
.node text {
fill: #000000;
}
.node_node_style .shape {
fill: #ffffcc;
stroke: #000000;
}
.node_node_style text {
fill: #000000;
}
.node_node_style_2 .shape {
fill: #ffffff;
stroke: #000000;
}
.node_node_style_2 text {
fill: #000000;
}
.node_node_style_4 .shape {
fill: #ffffff;
stroke: #000000;
}
.node_node_style_4 text {
fill: #000000;
}
.node_node_style .shape {
fill: #ffffcc;
stroke: #000000;
}
.node_node_style text {
fill: #000000;
}
.node_glia_node .shape {
fill: #53ab27;
stroke: #000000;
}
.node_glia_node text {
fill: #000000;
}
.node_node_style_4 .shape {
fill: #ffffff;
stroke: #000000;
}
.node_node_style_4 text {
fill: #000000;
}
.node_node_style_5 .shape {
fill: #ff6565;
stroke: #000000;
}
.node_node_style_5 text {
fill: #000000;
}
.node_node_style .shape {
fill: #ffffcc;
stroke: #000000;
}
.node_node_style text {
fill: #000000;
}
.node_node_style_2 .shape {
fill: #ffffff;
stroke: #000000;
}
.node_node_style_2 text {
fill: #000000;
}
.node_node_style_4 .shape {
fill: #ffffff;
stroke: #000000;
}
.node_node_style_4 text {
fill: #000000;
}
.node_node_style_3 .shape {
fill: #999999;
stroke: #000000;
}
.node_node_style_3 text {
fill: #000000;
}
.node_glia_node .shape {
fill: #339900;
stroke: #000000;
}
.node_glia_node text {
fill: #000000;
}
.node_node_style_5 .shape {
fill: #9999ff;
stroke: #000000;
}
.node_node_style_5 text {
fill: #000000;
}
.node_node_style_6 .shape {
fill: #add5fa;
stroke: #000000;
}
.node_node_style_6 text {
fill: #000000;
}
.node_node_style_7 .shape {
fill: #ea80ea;
stroke: #000000;
}
.node_node_style_7 text {
fill: #000000;
}
.node_node_style_8 .shape {
fill: #0c7921;
stroke: #000000;
}
.node_node_style_8 text {
fill: #000000;
}
.edge {
stroke: #000000;
fill: none;
stroke-width: 1;
}
.edge_POSITIVE {
stroke: #00c800;
}
.edge_NEGATIVE {
stroke: #c80000;
}
.edge_DUAL {
stroke: #0000c8;
}
.edge_edge_style_2 {
stroke: #c80000;
fill: none;
stroke-width: 1;
}
.edge_edge_style {
stroke: #00c800;
fill: none;
stroke-width: 1;
}
.edge_edge_style_2 {
stroke: #c80000;
fill: none;
stroke-width: 1;
}
.edge_edge_style {
stroke: #00c800;
fill: none;
stroke-width: 1;
}
.edge_circuit_edge_2 {
stroke: #00c800;
fill: none;
stroke-width: 1;
}
.edge_circuit_edge {
stroke: #c80000;
fill: none;
stroke-width: 1;
}
</style>
  <defs>
    <marker id="Marker_POSITIVE_00c800" viewBox="-7 -7 12 15" orient="auto" markerHeight="9" markerWidth="9">
      <path stroke="#00c800" fill="#00c800" d="M -4 -5 L -2 0 L -4 5 L 2 0 z"/>
    </marker>
  </defs>
  <path class="edge edge_POSITIVE edge_circuit_edge_2" marker-end="url(#Marker_POSITIVE_00c800)" d="M 370.0 359.0 Q 370.0,381.0 370.0,404.0 Q 370.0,409.0 370.0,415.0"/>
  <path class="edge edge_POSITIVE" marker-end="url(#Marker_POSITIVE_00c800)" d="M 468.0 191.0 L 469.0 205.0"/>
  <defs>
    <marker id="Marker_NEGATIVE_c80000" viewBox="-7 -7 12 15" orient="auto" markerHeight="9" markerWidth="9">
      <path stroke="#c80000" fill="#c80000" d="M -1 -4 L -1 4 L 1 4 L 1 -4 z"/>
    </marker>
  </defs>
  <path class="edge edge_NEGATIVE edge_circuit_edge" marker-end="url(#Marker_NEGATIVE_c80000)" d="M 299.0 249.0 L 299.0 277.0"/>
  <path class="edge edge_NEGATIVE" marker-end="url(#Marker_NEGATIVE_c80000)" d="M 273.0 230.0 L 274.0 230.0 L 227.0 261.0 L 227.0 550.0"/>
  <path class="edge edge_POSITIVE edge_edge_style" marker-end="url(#Marker_POSITIVE_00c800)" d="M 701.0 154.0 L 701.0 186.0"/>
  <path class="edge edge_POSITIVE" marker-end="url(#Marker_POSITIVE_00c800)" d="M 370.0 530.0 L 368.0 579.0"/>
  <path class="edge edge_NEGATIVE edge_circuit_edge" marker-end="url(#Marker_NEGATIVE_c80000)" d="M 305.0 313.0 L 305.0 343.0 L 349.0 343.0"/>
  <path class="edge edge_POSITIVE edge_circuit_edge_2" marker-end="url(#Marker_POSITIVE_00c800)" d="M 299.0 313.0 L 299.0 371.0"/>
  <path class="edge edge_NEGATIVE edge_edge_style_2" marker-end="url(#Marker_NEGATIVE_c80000)" d="M 609.0 269.0 L 609.0 294.0"/>
  <path class="edge edge_POSITIVE edge_circuit_edge_2" marker-end="url(#Marker_POSITIVE_00c800)" d="M 620.0 242.0 L 620.0 227.0 L 647.0 227.0 L 647.0 254.0 L 635.0 254.0"/>
  <path class="edge edge_NEGATIVE" marker-end="url(#Marker_NEGATIVE_c80000)" d="M 299.0 172.0 L 299.0 213.0"/>
  <path class="edge edge_POSITIVE edge_circuit_edge_2" marker-end="url(#Marker_POSITIVE_00c800)" d="M 467.0 129.0 L 467.0 155.0"/>
  <path class="edge edge_NEGATIVE edge_circuit_edge" marker-end="url(#Marker_NEGATIVE_c80000)" d="M 679.0 369.0 Q 678.0,369.0 677.0,369.0 C 658.0,369.0 658.0,369.0 640.0,369.0 Q 640.0,369.0 640.0,369.0"/>
  <path class="edge edge_NEGATIVE" marker-end="url(#Marker_NEGATIVE_c80000)" d="M 713.0 382.0 L 713.0 430.0 L 699.0 430.0"/>
  <path class="edge edge_POSITIVE" marker-end="url(#Marker_POSITIVE_00c800)" d="M 738.0 358.0 L 802.0 358.0 L 802.0 380.0 L 802.0 808.0 L 591.0 808.0"/>
  <path class="edge edge_POSITIVE" marker-end="url(#Marker_POSITIVE_00c800)" d="M 738.0 362.0 L 797.0 362.0 L 797.0 770.0 L 692.0 770.0"/>
  <path class="edge edge_POSITIVE" marker-end="url(#Marker_POSITIVE_00c800)" d="M 719.0 382.0 L 719.0 488.0 L 699.0 488.0"/>
  <path class="edge edge_POSITIVE" marker-end="url(#Marker_POSITIVE_00c800)" d="M 723.0 369.0 L 723.0 369.0 L 759.0 370.0 L 759.0 426.0"/>
  <path class="edge edge_POSITIVE" marker-end="url(#Marker_POSITIVE_00c800)" d="M 738.0 366.0 L 792.0 366.0 L 791.0 618.0 L 483.0 618.0 L 399.0 618.0"/>
  <path class="edge edge_POSITIVE edge_edge_style" marker-end="url(#Marker_POSITIVE_00c800)" d="M 704.0 222.0 L 704.0 234.0 L 704.0 278.0"/>
  <path class="edge edge_POSITIVE edge_edge_style" marker-end="url(#Marker_POSITIVE_00c800)" d="M 700.0 222.0 L 700.0 259.0 L 635.0 259.0"/>
  <path class="edge edge_POSITIVE" marker-end="url(#Marker_POSITIVE_00c800)" d="M 305.0 529.0 L 305.0 729.0 L 521.0 729.0"/>
  <path class="edge edge_POSITIVE" marker-end="url(#Marker_POSITIVE_00c800)" d="M 307.0 529.0 L 307.0 529.0 L 310.0 674.0 L 516.0 674.0"/>
  <path class="edge edge_POSITIVE" marker-end="url(#Marker_POSITIVE_00c800)" d="M 302.0 529.0 L 302.0 806.0 L 519.0 806.0"/>
  <path class="edge edge_POSITIVE" marker-end="url(#Marker_POSITIVE_00c800)" d="M 278.0 529.0 L 278.0 536.0 L 255.0 556.0 L 255.0 556.0"/>
  <path class="edge edge_POSITIVE" marker-end="url(#Marker_POSITIVE_00c800)" d="M 309.0 529.0 L 352.0 579.0"/>
  <path class="edge edge_POSITIVE" marker-end="url(#Marker_POSITIVE_00c800)" d="M 339.0 584.0 L 117.0 452.0"/>
  <path class="edge edge_POSITIVE" marker-end="url(#Marker_POSITIVE_00c800)" d="M 468.0 289.0 L 468.0 289.0 L 468.0 304.0"/>
  <path class="edge edge_POSITIVE edge_edge_style" marker-end="url(#Marker_POSITIVE_00c800)" d="M 708.0 314.0 L 708.0 341.0"/>
  <path class="edge edge_NEGATIVE edge_circuit_edge" marker-end="url(#Marker_NEGATIVE_c80000)" d="M 640.0 359.0 Q 638.0,359.0 639.0,359.0 C 650.0,359.0 650.0,359.0 661.0,359.0 C 673.0,359.0 673.0,359.0 685.0,359.0 Q 685.0,359.0 685.0,359.0"/>
  <path class="edge edge_NEGATIVE" marker-end="url(#Marker_NEGATIVE_c80000)" d="M 620.0 383.0 L 620.0 431.0 L 637.0 431.0"/>
  <path class="edge edge_POSITIVE" marker-end="url(#Marker_POSITIVE_00c800)" d="M 602.0 383.0 L 602.0 673.0 L 588.0 673.0"/>
  <path class="edge edge_NEGATIVE" marker-end="url(#Marker_NEGATIVE_c80000)" d="M 616.0 383.0 L 616.0 488.0 L 637.0 488.0"/>
  <path class="edge edge_POSITIVE" marker-end="url(#Marker_POSITIVE_00c800)" d="M 612.0 383.0 L 612.0 750.0 L 428.0 750.0"/>
  <path class="edge edge_POSITIVE" marker-end="url(#Marker_POSITIVE_00c800)" d="M 670.0 504.0 L 670.0 595.0 L 670.0 634.0"/>
  <path class="edge edge_POSITIVE" marker-end="url(#Marker_POSITIVE_00c800)" d="M 698.0 495.0 L 720.0 495.0 L 721.0 764.0 L 692.0 764.0"/>
  <path class="edge edge_POSITIVE" marker-end="url(#Marker_POSITIVE_00c800)" d="M 698.0 501.0 L 716.0 501.0 L 716.0 712.0 L 696.0 712.0"/>
  <path class="edge edge_NEGATIVE edge_circuit_edge" marker-end="url(#Marker_NEGATIVE_c80000)" d="M 342.0 435.0 L 312.0 435.0 L 312.0 488.0"/>
  <path class="edge edge_NEGATIVE" marker-end="url(#Marker_NEGATIVE_c80000)" d="M 370.0 451.0 L 370.0 452.0 L 370.0 489.0"/>
  <path class="edge edge_NEGATIVE" marker-end="url(#Marker_NEGATIVE_c80000)" d="M 89.0 454.0 L 89.0 576.0"/>
  <path class="edge edge_POSITIVE edge_circuit_edge_2" marker-end="url(#Marker_POSITIVE_00c800)" d="M 300.0 407.0 L 300.0 408.0 L 300.0 423.0 L 300.0 488.0"/>
  <path class="edge edge_NEGATIVE" marker-end="url(#Marker_NEGATIVE_c80000)" d="M 158.0 436.0 L 117.0 436.0"/>
  <path class="edge edge_NEGATIVE" marker-end="url(#Marker_NEGATIVE_c80000)" d="M 190.0 453.0 L 190.0 634.0 L 511.0 635.0 L 510.0 326.0 L 501.0 326.0"/>
  <path class="edge edge_POSITIVE" marker-end="url(#Marker_POSITIVE_00c800)" d="M 184.0 453.0 L 184.0 784.0 L 355.0 784.0"/>
  <path class="edge edge_POSITIVE" marker-end="url(#Marker_POSITIVE_00c800)" d="M 464.0 345.0 L 464.0 513.0 L 401.0 513.0"/>
  <path class="edge edge_NEGATIVE" marker-end="url(#Marker_NEGATIVE_c80000)" d="M 459.0 345.0 L 459.0 433.0 L 397.0 433.0"/>
  <path class="edge edge_NEGATIVE" marker-end="url(#Marker_NEGATIVE_c80000)" d="M 455.0 345.0 L 455.0 389.0 L 327.0 389.0"/>
  <path class="edge edge_POSITIVE" marker-end="url(#Marker_POSITIVE_00c800)" d="M 481.0 345.0 L 481.0 652.0 L 627.0 652.0"/>
  <path class="edge edge_POSITIVE" marker-end="url(#Marker_POSITIVE_00c800)" d="M 474.0 345.0 L 474.0 766.0 L 620.0 766.0"/>
  <path class="edge edge_NEGATIVE" marker-end="url(#Marker_NEGATIVE_c80000)" d="M 469.0 345.0 L 469.0 574.0 L 469.0 607.0 L 399.0 607.0"/>
  <path class="edge edge_POSITIVE" marker-end="url(#Marker_POSITIVE_00c800)" d="M 470.0 241.0 L 470.0 253.0"/>
  <path class="edge edge_POSITIVE" marker-end="url(#Marker_POSITIVE_00c800)" d="M 497.0 224.0 L 515.0 224.0 L 516.0 498.0 L 637.0 498.0"/>
  <path class="edge edge_POSITIVE" marker-end="url(#Marker_POSITIVE_00c800)" d="M 137.0 662.0 L 137.0 702.0 L 360.0 702.0"/>
  <path class="edge edge_POSITIVE" marker-end="url(#Marker_POSITIVE_00c800)" d="M 132.0 662.0 L 132.0 751.0 L 356.0 751.0"/>
  <path class="edge edge_POSITIVE" marker-end="url(#Marker_POSITIVE_00c800)" d="M 241.0 552.0 L 241.0 544.0 L 264.0 524.0 L 264.0 524.0"/>
  <path class="edge edge_POSITIVE" marker-end="url(#Marker_POSITIVE_00c800)" d="M 225.0 591.0 L 225.0 734.0 L 521.0 734.0"/>
  <path class="edge edge_POSITIVE" marker-end="url(#Marker_POSITIVE_00c800)" d="M 233.0 591.0 L 233.0 681.0 L 516.0 681.0"/>
  <path class="edge edge_POSITIVE" marker-end="url(#Marker_POSITIVE_00c800)" d="M 228.0 591.0 L 228.0 774.0 L 620.0 774.0"/>
  <path class="edge edge_POSITIVE" marker-end="url(#Marker_POSITIVE_00c800)" d="M 221.0 591.0 L 221.0 811.0 L 519.0 811.0"/>
  <path class="edge edge_POSITIVE" marker-end="url(#Marker_POSITIVE_00c800)" d="M 764.0 467.0 L 764.0 803.0 L 591.0 803.0"/>
  <path class="edge edge_NEGATIVE" marker-end="url(#Marker_NEGATIVE_c80000)" d="M 116.0 598.0 L 177.0 598.0 L 177.0 454.0"/>
  <path class="edge edge_POSITIVE" marker-end="url(#Marker_POSITIVE_00c800)" d="M 97.0 612.0 L 97.0 710.0 L 360.0 710.0"/>
  <path class="edge edge_POSITIVE" marker-end="url(#Marker_POSITIVE_00c800)" d="M 89.0 612.0 L 89.0 797.0 L 355.0 797.0"/>
  <path class="edge edge_NEGATIVE" marker-end="url(#Marker_NEGATIVE_c80000)" d="M 609.0 325.0 L 609.0 342.0"/>
  <g id="Hh" class="node node_node_style">
    <rect id="Hh_shape" class="shape" width="60" height="40" x="269" y="130"/>
    <text  id="Hh_text" x="299" y="153" text-anchor="middle">Hh</text>
  </g>
  <g id="Ptc" class="node node_node_style_2">
    <rect id="Ptc_shape" class="shape" width="50" height="30" x="275" y="217"/>
    <text  id="Ptc_text" x="300" y="235" text-anchor="middle">Ptc</text>
  </g>
  <g id="Smo" class="node node_node_style_2">
    <rect id="Smo_shape" class="shape" width="50" height="30" x="274" y="281"/>
    <text  id="Smo_text" x="299" y="299" text-anchor="middle">Smo</text>
  </g>
  <g id="Pka" class="node node_node_style_4">
    <ellipse id="Pka_shape" class="shape" cx="375.5" cy="344.5" rx="22.5" ry="12.5"/>
    <text  id="Pka_text" x="375" y="347" text-anchor="middle">Pka</text>
  </g>
  <g id="Ci_act" class="node node_node_style_2">
    <rect id="Ci_act_shape" class="shape" width="50" height="30" x="274" y="375"/>
    <text  id="Ci_act_text" x="299" y="393" text-anchor="middle">Ci_act</text>
  </g>
  <g id="Ci_rep" class="node node_node_style_2">
    <rect id="Ci_rep_shape" class="shape" width="50" height="30" x="344" y="419"/>
    <text  id="Ci_rep_text" x="369" y="437" text-anchor="middle">Ci_rep</text>
  </g>
  <g id="Wg" class="node node_node_style">
    <rect id="Wg_shape" class="shape" width="60" height="40" x="437" y="87"/>
    <text  id="Wg_text" x="467" y="110" text-anchor="middle">Wg</text>
  </g>
  <g id="Fz" class="node node_node_style_2">
    <rect id="Fz_shape" class="shape" width="50" height="30" x="443" y="159"/>
    <text  id="Fz_text" x="468" y="177" text-anchor="middle">Fz</text>
  </g>
  <g id="Arm" class="node node_node_style_2">
    <rect id="Arm_shape" class="shape" width="50" height="30" x="445" y="209"/>
    <text  id="Arm_text" x="470" y="227" text-anchor="middle">Arm</text>
  </g>
  <g id="Pan" class="node node_node_style_2">
    <rect id="Pan_shape" class="shape" width="50" height="30" x="446" y="257"/>
    <text  id="Pan_text" x="471" y="275" text-anchor="middle">Pan</text>
  </g>
  <g id="Egfr" class="node node_node_style">
    <rect id="Egfr_shape" class="shape" width="60" height="40" x="671" y="112"/>
    <text  id="Egfr_text" x="701" y="135" text-anchor="middle">Egfr</text>
  </g>
  <g id="Rl" class="node node_node_style_2">
    <rect id="Rl_shape" class="shape" width="50" height="30" x="677" y="190"/>
    <text  id="Rl_text" x="702" y="208" text-anchor="middle">Rl</text>
  </g>
  <g id="Pnt" class="node node_node_style_2">
    <rect id="Pnt_shape" class="shape" width="50" height="30" x="683" y="282"/>
    <text  id="Pnt_text" x="708" y="300" text-anchor="middle">Pnt</text>
  </g>
  <g id="pGro" class="node node_node_style_4">
    <ellipse id="pGro_shape" class="shape" cx="609.5" cy="254.5" rx="22.5" ry="12.5"/>
    <text  id="pGro_text" x="609" y="257" text-anchor="middle">pGro</text>
  </g>
  <g id="Gro" class="node node_node_style_4">
    <ellipse id="Gro_shape" class="shape" cx="609.5" cy="310.5" rx="22.5" ry="12.5"/>
    <text  id="Gro_text" x="609" y="313" text-anchor="middle">Gro</text>
  </g>
  <g id="wg" class="node node_node_style_3">
    <rect id="wg_shape" class="shape" width="55" height="35" x="268" y="492"/>
    <text  id="wg_text" x="295" y="512" text-anchor="middle">wg</text>
  </g>
  <g id="en" class="node node_node_style_3">
    <rect id="en_shape" class="shape" width="55" height="35" x="443" y="308"/>
    <text  id="en_text" x="470" y="328" text-anchor="middle">en</text>
  </g>
  <g id="hh" class="node node_node_style_3">
    <rect id="hh_shape" class="shape" width="55" height="35" x="343" y="493"/>
    <text  id="hh_text" x="370" y="513" text-anchor="middle">hh</text>
  </g>
  <g id="gsb" class="node node_node_style_3">
    <rect id="gsb_shape" class="shape" width="55" height="35" x="197" y="554"/>
    <text  id="gsb_text" x="224" y="574" text-anchor="middle">gsb</text>
  </g>
  <g id="vnd" class="node node_node_style_3">
    <rect id="vnd_shape" class="shape" width="55" height="35" x="681" y="345"/>
    <text  id="vnd_text" x="708" y="365" text-anchor="middle">vnd</text>
  </g>
  <g id="ind" class="node node_node_style_3">
    <rect id="ind_shape" class="shape" width="55" height="35" x="583" y="346"/>
    <text  id="ind_text" x="610" y="366" text-anchor="middle">ind</text>
  </g>
  <g id="msh" class="node node_node_style_3">
    <rect id="msh_shape" class="shape" width="55" height="35" x="641" y="409"/>
    <text  id="msh_text" x="668" y="429" text-anchor="middle">msh</text>
  </g>
  <g id="svp" class="node node_node_style_3">
    <rect id="svp_shape" class="shape" width="55" height="35" x="730" y="430"/>
    <text  id="svp_text" x="757" y="450" text-anchor="middle">svp</text>
  </g>
  <g id="ac" class="node node_node_style_3">
    <rect id="ac_shape" class="shape" width="55" height="35" x="641" y="467"/>
    <text  id="ac_text" x="668" y="487" text-anchor="middle">ac</text>
  </g>
  <g id="hkb" class="node node_node_style_3">
    <rect id="hkb_shape" class="shape" width="55" height="35" x="341" y="583"/>
    <text  id="hkb_text" x="368" y="603" text-anchor="middle">hkb</text>
  </g>
  <g id="NB5_6" class="node">
    <ellipse id="NB5_6_shape" class="shape" cx="557.5" cy="730.5" rx="32.5" ry="12.5"/>
    <text  id="NB5_6_text" x="557" y="733" text-anchor="middle">NB5_6</text>
  </g>
  <g id="NB5_3" class="node">
    <ellipse id="NB5_3_shape" class="shape" cx="552.5" cy="674.5" rx="32.5" ry="12.5"/>
    <text  id="NB5_3_text" x="552" y="677" text-anchor="middle">NB5_3</text>
  </g>
  <g id="NB5_2" class="node">
    <ellipse id="NB5_2_shape" class="shape" cx="555.5" cy="808.5" rx="32.5" ry="12.5"/>
    <text  id="NB5_2_text" x="555" y="811" text-anchor="middle">NB5_2</text>
  </g>
  <g id="NB7_4" class="node">
    <ellipse id="NB7_4_shape" class="shape" cx="663.5" cy="650.5" rx="32.5" ry="12.5"/>
    <text  id="NB7_4_text" x="663" y="653" text-anchor="middle">NB7_4</text>
  </g>
  <g id="NB7_1" class="node">
    <ellipse id="NB7_1_shape" class="shape" cx="656.5" cy="770.5" rx="32.5" ry="12.5"/>
    <text  id="NB7_1_text" x="656" y="773" text-anchor="middle">NB7_1</text>
  </g>
  <g id="odd" class="node node_node_style_2">
    <rect id="odd_shape" class="shape" width="50" height="30" x="64" y="580"/>
    <text  id="odd_text" x="89" y="598" text-anchor="middle">odd</text>
  </g>
  <g id="runt" class="node node_node_style_2">
    <rect id="runt_shape" class="shape" width="50" height="30" x="160" y="421"/>
    <text  id="runt_text" x="185" y="439" text-anchor="middle">runt</text>
  </g>
  <g id="eve" class="node node_node_style_2">
    <rect id="eve_shape" class="shape" width="50" height="30" x="64" y="422"/>
    <text  id="eve_text" x="89" y="440" text-anchor="middle">eve</text>
  </g>
  <g id="mirr" class="node node_node_style_2">
    <rect id="mirr_shape" class="shape" width="50" height="30" x="109" y="630"/>
    <text  id="mirr_text" x="134" y="648" text-anchor="middle">mirr</text>
  </g>
  <g id="NB1_1" class="node">
    <ellipse id="NB1_1_shape" class="shape" cx="391.5" cy="790.5" rx="32.5" ry="12.5"/>
    <text  id="NB1_1_text" x="391" y="793" text-anchor="middle">NB1_1</text>
  </g>
  <g id="NB3_2" class="node">
    <ellipse id="NB3_2_shape" class="shape" cx="392.5" cy="752.5" rx="32.5" ry="12.5"/>
    <text  id="NB3_2_text" x="392" y="755" text-anchor="middle">NB3_2</text>
  </g>
  <g id="NB2_5" class="node">
    <ellipse id="NB2_5_shape" class="shape" cx="396.5" cy="705.5" rx="32.5" ry="12.5"/>
    <text  id="NB2_5_text" x="396" y="708" text-anchor="middle">NB2_5</text>
  </g>
  <g id="NB3_5" class="node">
    <ellipse id="NB3_5_shape" class="shape" cx="660.5" cy="709.5" rx="32.5" ry="12.5"/>
    <text  id="NB3_5_text" x="660" y="712" text-anchor="middle">NB3_5</text>
  </g>
</svg>
