<?xml version="1.0" encoding="UTF-8"?>
<!DOCTYPE svg PUBLIC "-//W3C//DTD SVG 20001102//EN" "http://www.w3.org/TR/2000/CR-SVG-20001102/DTD/svg-20001102.dtd">
<svg width="808.0" height="914.0" xmlns="http://www.w3.org/2000/svg" version="1.1">
  <style type="text/css">
text {
  font-family: 'SansSerif';
  font-size: 12px;
}
.node .shape {
fill: #ffffff;
stroke: #000000;
}
.node text {
fill: #000000;
}
.node_node_style .shape {
fill: #ffffcc;
stroke: #000000;
}
.node_node_style text {
fill: #000000;
}
.node_node_style_2 .shape {
fill: #ffffff;
stroke: #000000;
}
.node_node_style_2 text {
fill: #000000;
}
.node_node_style_4 .shape {
fill: #ffffff;
stroke: #000000;
}
.node_node_style_4 text {
fill: #000000;
}
.node_node_style .shape {
fill: #ffffcc;
stroke: #000000;
}
.node_node_style text {
fill: #000000;
}
.node_glia_node .shape {
fill: #53ab27;
stroke: #000000;
}
.node_glia_node text {
fill: #000000;
}
.node_node_style_4 .shape {
fill: #ffffff;
stroke: #000000;
}
.node_node_style_4 text {
fill: #000000;
}
.node_node_style_5 .shape {
fill: #ff6565;
stroke: #000000;
}
.node_node_style_5 text {
fill: #000000;
}
.node_node_style .shape {
fill: #ffffcc;
stroke: #000000;
}
.node_node_style text {
fill: #000000;
}
.node_node_style_2 .shape {
fill: #ffffff;
stroke: #000000;
}
.node_node_style_2 text {
fill: #000000;
}
.node_node_style_4 .shape {
fill: #ffffff;
stroke: #000000;
}
.node_node_style_4 text {
fill: #000000;
}
.node_node_style_3 .shape {
fill: #999999;
stroke: #000000;
}
.node_node_style_3 text {
fill: #000000;
}
.node_glia_node .shape {
fill: #339900;
stroke: #000000;
}
.node_glia_node text {
fill: #000000;
}
.node_node_style_5 .shape {
fill: #9999ff;
stroke: #000000;
}
.node_node_style_5 text {
fill: #000000;
}
.node_node_style_6 .shape {
fill: #add5fa;
stroke: #000000;
}
.node_node_style_6 text {
fill: #000000;
}
.node_node_style_7 .shape {
fill: #ea80ea;
stroke: #000000;
}
.node_node_style_7 text {
fill: #000000;
}
.node_node_style_8 .shape {
fill: #0c7921;
stroke: #000000;
}
.node_node_style_8 text {
fill: #000000;
}
.edge {
stroke: #000000;
fill: none;
stroke-width: 1;
}
.edge_POSITIVE {
stroke: #00c800;
}
.edge_NEGATIVE {
stroke: #c80000;
}
.edge_DUAL {
stroke: #0000c8;
}
.edge_edge_style_2 {
stroke: #c80000;
fill: none;
stroke-width: 1;
}
.edge_edge_style {
stroke: #00c800;
fill: none;
stroke-width: 1;
}
.edge_edge_style_2 {
stroke: #c80000;
fill: none;
stroke-width: 1;
}
.edge_edge_style {
stroke: #00c800;
fill: none;
stroke-width: 1;
}
.edge_circuit_edge_2 {
stroke: #00c800;
fill: none;
stroke-width: 1;
}
.edge_circuit_edge {
stroke: #c80000;
fill: none;
stroke-width: 1;
}
</style>
  <defs>
    <marker id="Marker_POSITIVE_00c800" viewBox="-7 -7 12 15" orient="auto" markerHeight="9" markerWidth="9">
      <path stroke="#00c800" fill="#00c800" d="M -4 -5 L -2 0 L -4 5 L 2 0 z"/>
    </marker>
  </defs>
  <path class="edge edge_POSITIVE" marker-end="url(#Marker_POSITIVE_00c800)" d="M 470.0 241.0 L 470.0 253.0"/>
  <path class="edge edge_POSITIVE" marker-end="url(#Marker_POSITIVE_00c800)" d="M 497.0 224.0 L 515.0 224.0 L 516.0 498.0 L 637.0 498.0"/>
  <defs>
    <marker id="Marker_NEGATIVE_c80000" viewBox="-7 -7 12 15" orient="auto" markerHeight="9" markerWidth="9">
      <path stroke="#c80000" fill="#c80000" d="M -1 -4 L -1 4 L 1 4 L 1 -4 z"/>
    </marker>
  </defs>
  <path class="edge edge_NEGATIVE edge_circuit_edge" marker-end="url(#Marker_NEGATIVE_c80000)" d="M 640.0 359.0 Q 638.0,359.0 639.0,359.0 C 650.0,359.0 650.0,359.0 661.0,359.0 C 673.0,359.0 673.0,359.0 685.0,359.0 Q 685.0,359.0 685.0,359.0"/>
  <path class="edge edge_NEGATIVE" marker-end="url(#Marker_NEGATIVE_c80000)" d="M 620.0 383.0 L 620.0 431.0 L 637.0 431.0"/>
  <path class="edge edge_POSITIVE" marker-end="url(#Marker_POSITIVE_00c800)" d="M 602.0 383.0 L 602.0 692.0 L 588.0 692.0"/>
  <path class="edge edge_NEGATIVE" marker-end="url(#Marker_NEGATIVE_c80000)" d="M 616.0 383.0 L 616.0 488.0 L 637.0 488.0"/>
  <path class="edge edge_POSITIVE" marker-end="url(#Marker_POSITIVE_00c800)" d="M 614.0 383.0 L 614.0 776.0 L 284.0 776.0"/>
  <path class="edge edge_POSITIVE" marker-end="url(#Marker_POSITIVE_00c800)" d="M 607.0 383.0 L 607.0 814.0 L 486.0 814.0"/>
  <path class="edge edge_POSITIVE" marker-end="url(#Marker_POSITIVE_00c800)" d="M 621.0 383.0 L 621.0 757.0 L 643.0 757.0"/>
  <path class="edge edge_POSITIVE" marker-end="url(#Marker_POSITIVE_00c800)" d="M 612.0 383.0 L 612.0 704.0 L 640.0 704.0"/>
  <path class="edge edge_POSITIVE edge_circuit_edge_2" marker-end="url(#Marker_POSITIVE_00c800)" d="M 300.0 407.0 L 300.0 408.0 L 300.0 423.0 L 300.0 488.0"/>
  <path class="edge edge_POSITIVE edge_edge_style" marker-end="url(#Marker_POSITIVE_00c800)" d="M 704.0 222.0 L 704.0 234.0 L 704.0 278.0"/>
  <path class="edge edge_POSITIVE edge_edge_style" marker-end="url(#Marker_POSITIVE_00c800)" d="M 700.0 222.0 L 700.0 259.0 L 635.0 259.0"/>
  <path class="edge edge_POSITIVE edge_edge_style" marker-end="url(#Marker_POSITIVE_00c800)" d="M 701.0 154.0 L 701.0 186.0"/>
  <path class="edge edge_NEGATIVE edge_circuit_edge" marker-end="url(#Marker_NEGATIVE_c80000)" d="M 299.0 249.0 L 299.0 277.0"/>
  <path class="edge edge_NEGATIVE" marker-end="url(#Marker_NEGATIVE_c80000)" d="M 273.0 230.0 L 257.0 230.0 L 210.0 261.0 L 210.0 510.0"/>
  <path class="edge edge_POSITIVE" marker-end="url(#Marker_POSITIVE_00c800)" d="M 468.0 191.0 L 469.0 205.0"/>
  <path class="edge edge_NEGATIVE" marker-end="url(#Marker_NEGATIVE_c80000)" d="M 104.0 527.0 L 75.0 575.0"/>
  <path class="edge edge_POSITIVE" marker-end="url(#Marker_POSITIVE_00c800)" d="M 765.0 467.0 L 765.0 832.0 L 594.0 830.0"/>
  <path class="edge edge_POSITIVE" marker-end="url(#Marker_POSITIVE_00c800)" d="M 758.0 467.0 L 758.0 697.0 L 712.0 697.0"/>
  <path class="edge edge_POSITIVE" marker-end="url(#Marker_POSITIVE_00c800)" d="M 298.0 529.0 L 298.0 747.0 L 521.0 747.0"/>
  <path class="edge edge_POSITIVE" marker-end="url(#Marker_POSITIVE_00c800)" d="M 301.0 529.0 L 301.0 548.0 L 301.0 688.0 L 516.0 688.0"/>
  <path class="edge edge_POSITIVE" marker-end="url(#Marker_POSITIVE_00c800)" d="M 295.0 529.0 L 295.0 836.0 L 522.0 836.0"/>
  <path class="edge edge_POSITIVE" marker-end="url(#Marker_POSITIVE_00c800)" d="M 266.0 525.0 L 266.0 525.0 L 235.0 532.0 L 231.0 532.0"/>
  <path class="edge edge_POSITIVE" marker-end="url(#Marker_POSITIVE_00c800)" d="M 309.0 529.0 L 309.0 600.0 L 366.0 600.0"/>
  <path class="edge edge_POSITIVE" marker-end="url(#Marker_POSITIVE_00c800)" d="M 379.0 530.0 L 379.0 548.0 L 379.0 584.0"/>
  <path class="edge edge_NEGATIVE edge_circuit_edge" marker-end="url(#Marker_NEGATIVE_c80000)" d="M 342.0 435.0 L 312.0 435.0 L 312.0 488.0"/>
  <path class="edge edge_NEGATIVE" marker-end="url(#Marker_NEGATIVE_c80000)" d="M 370.0 451.0 L 370.0 452.0 L 370.0 489.0"/>
  <path class="edge edge_POSITIVE" marker-end="url(#Marker_POSITIVE_00c800)" d="M 468.0 289.0 L 468.0 289.0 L 468.0 304.0"/>
  <path class="edge edge_NEGATIVE" marker-end="url(#Marker_NEGATIVE_c80000)" d="M 152.0 452.0 L 124.0 491.0"/>
  <path class="edge edge_NEGATIVE" marker-end="url(#Marker_NEGATIVE_c80000)" d="M 163.0 452.0 L 163.0 633.0 L 511.0 632.0 L 510.0 326.0 L 501.0 326.0"/>
  <path class="edge edge_POSITIVE" marker-end="url(#Marker_POSITIVE_00c800)" d="M 159.0 452.0 L 159.0 890.0 L 231.0 890.0"/>
  <path class="edge edge_POSITIVE" marker-end="url(#Marker_POSITIVE_00c800)" d="M 670.0 504.0 L 670.0 595.0 L 670.0 634.0"/>
  <path class="edge edge_POSITIVE" marker-end="url(#Marker_POSITIVE_00c800)" d="M 698.0 504.0 L 722.0 520.0 L 723.0 789.0 L 713.0 789.0"/>
  <path class="edge edge_POSITIVE" marker-end="url(#Marker_POSITIVE_00c800)" d="M 698.0 504.0 L 716.0 520.0 L 716.0 731.0 L 473.0 731.0"/>
  <path class="edge edge_NEGATIVE" marker-end="url(#Marker_NEGATIVE_c80000)" d="M 93.0 597.0 L 154.0 597.0 L 154.0 453.0"/>
  <path class="edge edge_POSITIVE" marker-end="url(#Marker_POSITIVE_00c800)" d="M 73.0 611.0 L 73.0 726.0 L 218.0 726.0"/>
  <path class="edge edge_POSITIVE" marker-end="url(#Marker_POSITIVE_00c800)" d="M 68.0 611.0 L 68.0 898.0 L 231.0 898.0"/>
  <path class="edge edge_POSITIVE edge_circuit_edge_2" marker-end="url(#Marker_POSITIVE_00c800)" d="M 370.0 359.0 Q 370.0,381.0 370.0,404.0 Q 370.0,409.0 370.0,415.0"/>
  <path class="edge edge_POSITIVE edge_edge_style" marker-end="url(#Marker_POSITIVE_00c800)" d="M 708.0 314.0 L 708.0 341.0"/>
  <path class="edge edge_POSITIVE" marker-end="url(#Marker_POSITIVE_00c800)" d="M 230.0 515.0 L 229.0 515.0 L 260.0 508.0 L 264.0 508.0"/>
  <path class="edge edge_POSITIVE" marker-end="url(#Marker_POSITIVE_00c800)" d="M 195.0 551.0 L 195.0 758.0 L 521.0 758.0"/>
  <path class="edge edge_POSITIVE" marker-end="url(#Marker_POSITIVE_00c800)" d="M 201.0 551.0 L 201.0 697.0 L 516.0 697.0"/>
  <path class="edge edge_POSITIVE" marker-end="url(#Marker_POSITIVE_00c800)" d="M 193.0 551.0 L 193.0 800.0 L 641.0 800.0"/>
  <path class="edge edge_POSITIVE" marker-end="url(#Marker_POSITIVE_00c800)" d="M 186.0 551.0 L 186.0 844.0 L 522.0 844.0"/>
  <path class="edge edge_POSITIVE edge_circuit_edge_2" marker-end="url(#Marker_POSITIVE_00c800)" d="M 467.0 129.0 L 467.0 155.0"/>
  <path class="edge edge_POSITIVE" marker-end="url(#Marker_POSITIVE_00c800)" d="M 464.0 345.0 L 464.0 513.0 L 401.0 513.0"/>
  <path class="edge edge_NEGATIVE" marker-end="url(#Marker_NEGATIVE_c80000)" d="M 459.0 345.0 L 459.0 433.0 L 397.0 433.0"/>
  <path class="edge edge_NEGATIVE" marker-end="url(#Marker_NEGATIVE_c80000)" d="M 455.0 345.0 L 455.0 389.0 L 327.0 389.0"/>
  <path class="edge edge_POSITIVE" marker-end="url(#Marker_POSITIVE_00c800)" d="M 487.0 345.0 L 487.0 653.0 L 636.0 653.0"/>
  <path class="edge edge_POSITIVE" marker-end="url(#Marker_POSITIVE_00c800)" d="M 476.0 345.0 L 476.0 791.0 L 641.0 791.0"/>
  <path class="edge edge_NEGATIVE" marker-end="url(#Marker_NEGATIVE_c80000)" d="M 469.0 345.0 L 469.0 574.0 L 469.0 607.0 L 428.0 607.0"/>
  <path class="edge edge_POSITIVE" marker-end="url(#Marker_POSITIVE_00c800)" d="M 479.0 345.0 L 479.0 764.0 L 643.0 764.0"/>
  <path class="edge edge_POSITIVE" marker-end="url(#Marker_POSITIVE_00c800)" d="M 483.0 345.0 L 483.0 712.0 L 640.0 712.0"/>
  <path class="edge edge_POSITIVE" marker-end="url(#Marker_POSITIVE_00c800)" d="M 481.0 345.0 L 481.0 870.0 L 251.0 870.0"/>
  <path class="edge edge_POSITIVE" marker-end="url(#Marker_POSITIVE_00c800)" d="M 368.0 606.0 L 106.0 606.0 L 106.0 528.0"/>
  <path class="edge edge_POSITIVE" marker-end="url(#Marker_POSITIVE_00c800)" d="M 398.0 625.0 L 398.0 815.0 L 291.0 815.0"/>
  <path class="edge edge_POSITIVE" marker-end="url(#Marker_POSITIVE_00c800)" d="M 407.0 625.0 L 407.0 817.0 L 414.0 817.0"/>
  <path class="edge edge_NEGATIVE" marker-end="url(#Marker_NEGATIVE_c80000)" d="M 299.0 172.0 L 299.0 213.0"/>
  <path class="edge edge_POSITIVE" marker-end="url(#Marker_POSITIVE_00c800)" d="M 127.0 661.0 L 127.0 720.0 L 218.0 720.0"/>
  <path class="edge edge_POSITIVE" marker-end="url(#Marker_POSITIVE_00c800)" d="M 122.0 661.0 L 122.0 771.0 L 212.0 771.0"/>
  <path class="edge edge_POSITIVE" marker-end="url(#Marker_POSITIVE_00c800)" d="M 116.0 661.0 L 116.0 812.0 L 219.0 812.0"/>
  <path class="edge edge_POSITIVE" marker-end="url(#Marker_POSITIVE_00c800)" d="M 111.0 661.0 L 111.0 866.0 L 179.0 866.0"/>
  <path class="edge edge_NEGATIVE edge_circuit_edge" marker-end="url(#Marker_NEGATIVE_c80000)" d="M 305.0 313.0 L 305.0 343.0 L 349.0 343.0"/>
  <path class="edge edge_POSITIVE edge_circuit_edge_2" marker-end="url(#Marker_POSITIVE_00c800)" d="M 299.0 313.0 L 299.0 371.0"/>
  <path class="edge edge_NEGATIVE edge_edge_style_2" marker-end="url(#Marker_NEGATIVE_c80000)" d="M 609.0 269.0 L 609.0 294.0"/>
  <path class="edge edge_POSITIVE edge_circuit_edge_2" marker-end="url(#Marker_POSITIVE_00c800)" d="M 620.0 242.0 L 620.0 227.0 L 647.0 227.0 L 647.0 254.0 L 635.0 254.0"/>
  <path class="edge edge_NEGATIVE" marker-end="url(#Marker_NEGATIVE_c80000)" d="M 609.0 325.0 L 609.0 342.0"/>
  <path class="edge edge_NEGATIVE edge_circuit_edge" marker-end="url(#Marker_NEGATIVE_c80000)" d="M 679.0 369.0 Q 678.0,369.0 677.0,369.0 C 658.0,369.0 658.0,369.0 640.0,369.0 Q 640.0,369.0 640.0,369.0"/>
  <path class="edge edge_NEGATIVE" marker-end="url(#Marker_NEGATIVE_c80000)" d="M 713.0 382.0 L 713.0 430.0 L 699.0 430.0"/>
  <path class="edge edge_POSITIVE" marker-end="url(#Marker_POSITIVE_00c800)" d="M 738.0 382.0 L 803.0 387.0 L 803.0 409.0 L 803.0 837.0 L 594.0 837.0"/>
  <path class="edge edge_POSITIVE" marker-end="url(#Marker_POSITIVE_00c800)" d="M 738.0 382.0 L 799.0 387.0 L 799.0 795.0 L 713.0 795.0"/>
  <path class="edge edge_POSITIVE" marker-end="url(#Marker_POSITIVE_00c800)" d="M 719.0 382.0 L 719.0 488.0 L 699.0 488.0"/>
  <path class="edge edge_POSITIVE" marker-end="url(#Marker_POSITIVE_00c800)" d="M 723.0 369.0 L 723.0 369.0 L 759.0 370.0 L 759.0 426.0"/>
  <path class="edge edge_POSITIVE" marker-end="url(#Marker_POSITIVE_00c800)" d="M 738.0 366.0 L 792.0 366.0 L 791.0 618.0 L 483.0 618.0 L 428.0 618.0"/>
  <g id="Hh" class="node node_node_style">
    <rect id="Hh_shape" class="shape" width="60" height="40" x="269" y="130"/>
    <text  id="Hh_text" x="299" y="153" text-anchor="middle">Hh</text>
  </g>
  <g id="Ptc" class="node node_node_style_2">
    <rect id="Ptc_shape" class="shape" width="50" height="30" x="275" y="217"/>
    <text  id="Ptc_text" x="300" y="235" text-anchor="middle">Ptc</text>
  </g>
  <g id="Smo" class="node node_node_style_2">
    <rect id="Smo_shape" class="shape" width="50" height="30" x="274" y="281"/>
    <text  id="Smo_text" x="299" y="299" text-anchor="middle">Smo</text>
  </g>
  <g id="Pka" class="node node_node_style_4">
    <ellipse id="Pka_shape" class="shape" cx="375.5" cy="344.5" rx="22.5" ry="12.5"/>
    <text  id="Pka_text" x="375" y="347" text-anchor="middle">Pka</text>
  </g>
  <g id="Ci_act" class="node node_node_style_2">
    <rect id="Ci_act_shape" class="shape" width="50" height="30" x="274" y="375"/>
    <text  id="Ci_act_text" x="299" y="393" text-anchor="middle">Ci_act</text>
  </g>
  <g id="Ci_rep" class="node node_node_style_2">
    <rect id="Ci_rep_shape" class="shape" width="50" height="30" x="344" y="419"/>
    <text  id="Ci_rep_text" x="369" y="437" text-anchor="middle">Ci_rep</text>
  </g>
  <g id="Wg" class="node node_node_style">
    <rect id="Wg_shape" class="shape" width="60" height="40" x="437" y="87"/>
    <text  id="Wg_text" x="467" y="110" text-anchor="middle">Wg</text>
  </g>
  <g id="Fz" class="node node_node_style_2">
    <rect id="Fz_shape" class="shape" width="50" height="30" x="443" y="159"/>
    <text  id="Fz_text" x="468" y="177" text-anchor="middle">Fz</text>
  </g>
  <g id="Arm" class="node node_node_style_2">
    <rect id="Arm_shape" class="shape" width="50" height="30" x="445" y="209"/>
    <text  id="Arm_text" x="470" y="227" text-anchor="middle">Arm</text>
  </g>
  <g id="Pan" class="node node_node_style_2">
    <rect id="Pan_shape" class="shape" width="50" height="30" x="446" y="257"/>
    <text  id="Pan_text" x="471" y="275" text-anchor="middle">Pan</text>
  </g>
  <g id="Egfr" class="node node_node_style">
    <rect id="Egfr_shape" class="shape" width="60" height="40" x="671" y="112"/>
    <text  id="Egfr_text" x="701" y="135" text-anchor="middle">Egfr</text>
  </g>
  <g id="Rl" class="node node_node_style_2">
    <rect id="Rl_shape" class="shape" width="50" height="30" x="677" y="190"/>
    <text  id="Rl_text" x="702" y="208" text-anchor="middle">Rl</text>
  </g>
  <g id="Pnt" class="node node_node_style_2">
    <rect id="Pnt_shape" class="shape" width="50" height="30" x="683" y="282"/>
    <text  id="Pnt_text" x="708" y="300" text-anchor="middle">Pnt</text>
  </g>
  <g id="pGro" class="node node_node_style_4">
    <ellipse id="pGro_shape" class="shape" cx="609.5" cy="254.5" rx="22.5" ry="12.5"/>
    <text  id="pGro_text" x="609" y="257" text-anchor="middle">pGro</text>
  </g>
  <g id="Gro" class="node node_node_style_4">
    <ellipse id="Gro_shape" class="shape" cx="609.5" cy="310.5" rx="22.5" ry="12.5"/>
    <text  id="Gro_text" x="609" y="313" text-anchor="middle">Gro</text>
  </g>
  <g id="wg" class="node node_node_style_3">
    <rect id="wg_shape" class="shape" width="55" height="35" x="268" y="492"/>
    <text  id="wg_text" x="295" y="512" text-anchor="middle">wg</text>
  </g>
  <g id="en" class="node node_node_style_3">
    <rect id="en_shape" class="shape" width="55" height="35" x="443" y="308"/>
    <text  id="en_text" x="470" y="328" text-anchor="middle">en</text>
  </g>
  <g id="hh" class="node node_node_style_3">
    <rect id="hh_shape" class="shape" width="55" height="35" x="343" y="493"/>
    <text  id="hh_text" x="370" y="513" text-anchor="middle">hh</text>
  </g>
  <g id="gsb" class="node node_node_style_3">
    <rect id="gsb_shape" class="shape" width="55" height="35" x="173" y="514"/>
    <text  id="gsb_text" x="200" y="534" text-anchor="middle">gsb</text>
  </g>
  <g id="vnd" class="node node_node_style_3">
    <rect id="vnd_shape" class="shape" width="55" height="35" x="681" y="345"/>
    <text  id="vnd_text" x="708" y="365" text-anchor="middle">vnd</text>
  </g>
  <g id="ind" class="node node_node_style_3">
    <rect id="ind_shape" class="shape" width="55" height="35" x="583" y="346"/>
    <text  id="ind_text" x="610" y="366" text-anchor="middle">ind</text>
  </g>
  <g id="msh" class="node node_node_style_3">
    <rect id="msh_shape" class="shape" width="55" height="35" x="641" y="409"/>
    <text  id="msh_text" x="668" y="429" text-anchor="middle">msh</text>
  </g>
  <g id="svp" class="node node_node_style_3">
    <rect id="svp_shape" class="shape" width="55" height="35" x="730" y="430"/>
    <text  id="svp_text" x="757" y="450" text-anchor="middle">svp</text>
  </g>
  <g id="ac" class="node node_node_style_3">
    <rect id="ac_shape" class="shape" width="55" height="35" x="641" y="467"/>
    <text  id="ac_text" x="668" y="487" text-anchor="middle">ac</text>
  </g>
  <g id="hkb" class="node node_node_style_3">
    <rect id="hkb_shape" class="shape" width="55" height="35" x="370" y="588"/>
    <text  id="hkb_text" x="397" y="608" text-anchor="middle">hkb</text>
  </g>
  <g id="NB5_6" class="node">
    <ellipse id="NB5_6_shape" class="shape" cx="557.5" cy="749.5" rx="32.5" ry="12.5"/>
    <text  id="NB5_6_text" x="557" y="752" text-anchor="middle">NB5_6</text>
  </g>
  <g id="NB5_3" class="node">
    <ellipse id="NB5_3_shape" class="shape" cx="552.5" cy="693.5" rx="32.5" ry="12.5"/>
    <text  id="NB5_3_text" x="552" y="696" text-anchor="middle">NB5_3</text>
  </g>
  <g id="NB5_2" class="node">
    <ellipse id="NB5_2_shape" class="shape" cx="558.5" cy="845.5" rx="32.5" ry="12.5"/>
    <text  id="NB5_2_text" x="558" y="848" text-anchor="middle">NB5_2</text>
  </g>
  <g id="NB7_4" class="node">
    <ellipse id="NB7_4_shape" class="shape" cx="672.5" cy="650.5" rx="32.5" ry="12.5"/>
    <text  id="NB7_4_text" x="672" y="653" text-anchor="middle">NB7_4</text>
  </g>
  <g id="NB7_1" class="node">
    <ellipse id="NB7_1_shape" class="shape" cx="677.5" cy="795.5" rx="32.5" ry="12.5"/>
    <text  id="NB7_1_text" x="677" y="798" text-anchor="middle">NB7_1</text>
  </g>
  <g id="odd" class="node node_node_style_2">
    <rect id="odd_shape" class="shape" width="50" height="30" x="41" y="579"/>
    <text  id="odd_text" x="66" y="597" text-anchor="middle">odd</text>
  </g>
  <g id="runt" class="node node_node_style_2">
    <rect id="runt_shape" class="shape" width="50" height="30" x="137" y="420"/>
    <text  id="runt_text" x="162" y="438" text-anchor="middle">runt</text>
  </g>
  <g id="eve" class="node node_node_style_2">
    <rect id="eve_shape" class="shape" width="50" height="30" x="88" y="495"/>
    <text  id="eve_text" x="113" y="513" text-anchor="middle">eve</text>
  </g>
  <g id="mirr" class="node node_node_style_2">
    <rect id="mirr_shape" class="shape" width="50" height="30" x="93" y="629"/>
    <text  id="mirr_text" x="118" y="647" text-anchor="middle">mirr</text>
  </g>
  <g id="NB1_1" class="node">
    <ellipse id="NB1_1_shape" class="shape" cx="267.5" cy="896.5" rx="32.5" ry="12.5"/>
    <text  id="NB1_1_text" x="267" y="899" text-anchor="middle">NB1_1</text>
  </g>
  <g id="NB3_2" class="node">
    <ellipse id="NB3_2_shape" class="shape" cx="248.5" cy="771.5" rx="32.5" ry="12.5"/>
    <text  id="NB3_2_text" x="248" y="774" text-anchor="middle">NB3_2</text>
  </g>
  <g id="NB2_5" class="node">
    <ellipse id="NB2_5_shape" class="shape" cx="254.5" cy="726.5" rx="32.5" ry="12.5"/>
    <text  id="NB2_5_text" x="254" y="729" text-anchor="middle">NB2_5</text>
  </g>
  <g id="NB3_5" class="node">
    <ellipse id="NB3_5_shape" class="shape" cx="437.5" cy="724.5" rx="32.5" ry="12.5"/>
    <text  id="NB3_5_text" x="437" y="727" text-anchor="middle">NB3_5</text>
  </g>
  <g id="NB2_2" class="node">
    <ellipse id="NB2_2_shape" class="shape" cx="255.5" cy="818.5" rx="32.5" ry="12.5"/>
    <text  id="NB2_2_text" x="255" y="821" text-anchor="middle">NB2_2</text>
  </g>
  <g id="NB4_2" class="node">
    <ellipse id="NB4_2_shape" class="shape" cx="450.5" cy="820.5" rx="32.5" ry="12.5"/>
    <text  id="NB4_2_text" x="450" y="823" text-anchor="middle">NB4_2</text>
  </g>
  <g id="NB6_2" class="node">
    <ellipse id="NB6_2_shape" class="shape" cx="679.5" cy="763.5" rx="32.5" ry="12.5"/>
    <text  id="NB6_2_text" x="679" y="766" text-anchor="middle">NB6_2</text>
  </g>
  <g id="NB7_2" class="node">
    <ellipse id="NB7_2_shape" class="shape" cx="676.5" cy="704.5" rx="32.5" ry="12.5"/>
    <text  id="NB7_2_text" x="676" y="707" text-anchor="middle">NB7_2</text>
  </g>
  <g id="NB1_2" class="node">
    <ellipse id="NB1_2_shape" class="shape" cx="215.5" cy="868.5" rx="32.5" ry="12.5"/>
    <text  id="NB1_2_text" x="215" y="871" text-anchor="middle">NB1_2</text>
  </g>
</svg>
